<?xml version="1.0" encoding="utf-8"?>
<!-- Generator: Adobe Illustrator 16.0.0, SVG Export Plug-In . SVG Version: 6.00 Build 0)  -->
<!DOCTYPE svg PUBLIC "-//W3C//DTD SVG 1.1//EN" "http://www.w3.org/Graphics/SVG/1.1/DTD/svg11.dtd">
<svg version="1.1" xmlns="http://www.w3.org/2000/svg" xmlns:xlink="http://www.w3.org/1999/xlink" x="0px" y="0px"
	 width="477.739px" height="477.738px" viewBox="0 0 477.739 477.738" enable-background="new 0 0 477.739 477.738"
	 xml:space="preserve">
<g id="Layer_1" display="none">
</g>
<g id="Layer_4" display="none">
</g>
<g id="Layer_5" display="none">
</g>
<g id="Layer_3" display="none">
	<rect x="34.22" y="340.452" display="inline" fill-rule="evenodd" clip-rule="evenodd" fill="none" width="411.041" height="140"/>
	<text transform="matrix(1 0 0 1 102.1787 376.731)" display="inline"><tspan x="0" y="0" font-family="'Muli'" font-size="50">placenta to</tspan><tspan x="30.469" y="60" font-family="'Muli'" font-size="50">be saved</tspan></text>
	<g display="inline">
		<path fill-rule="evenodd" clip-rule="evenodd" d="M292.976,92.578c-0.184,10.037-3.627,18.641-10.65,25.677
			c-37.992,38.068-76.004,76.119-114.09,114.095c-10.938,10.904-24.123,13.705-38.571,8.805
			c-15.188-5.15-24.731-15.904-28.091-31.654c-2.963-13.89,1.719-25.347,11.649-35.229c36.945-36.762,73.797-73.618,110.583-110.54
			c10.785-10.824,23.248-15.099,38.125-10.734c15.465,4.536,25.244,14.849,29.594,30.273
			C292.37,86.27,292.509,89.469,292.976,92.578z M225.416,161.641c0.824-0.677,1.333-1.027,1.763-1.456
			c16.133-16.109,32.301-32.186,48.369-48.361c7.285-7.335,9.605-16.229,6.971-26.18c-3.244-12.251-11.26-20.331-23.273-23.864
			c-11.018-3.24-20.457,0.005-28.547,8.29c-13.727,14.06-27.783,27.797-41.678,41.694c-0.851,0.852-1.488,1.917-2.463,3.192
			C209.894,114.215,231.009,134.385,225.416,161.641z"/>
		<path fill-rule="evenodd" clip-rule="evenodd" d="M209.373,300.259c-13.608-1.072-26.519-8.959-33.833-24.697
			c-6.499-13.981-5.459-27.778,4.626-39.715c7.07-8.368,15.308-15.756,23.074-23.529c29.661-29.683,59.378-59.308,88.987-89.042
			c6.672-6.698,13.572-12.646,23.379-14.257c20.881-3.43,42.082,10.441,46.926,31.121c3.238,13.827,0.055,25.928-10.15,36.112
			c-37.479,37.404-74.918,74.847-112.316,112.331C232.54,296.128,223.759,300.435,209.373,300.259z M296.296,218.843
			c1.137-0.988,1.641-1.375,2.084-1.819c16.01-15.989,32.076-31.923,47.998-48c11.445-11.557,10.729-29.331-1.459-41.568
			c-12.441-12.491-30.141-13.219-41.896-1.593c-14.324,14.167-28.559,28.427-42.812,42.665c-0.883,0.883-1.6,1.933-2.533,3.073
			C287.446,176.116,300.028,191.279,296.296,218.843z"/>
		<path fill-rule="evenodd" clip-rule="evenodd" fill="#FFFFFF" d="M225.416,161.641c5.593-27.256-15.522-47.426-38.858-46.685
			c0.975-1.275,1.612-2.341,2.463-3.192c13.895-13.897,27.951-27.635,41.678-41.694c8.09-8.285,17.529-11.53,28.547-8.29
			c12.014,3.533,20.029,11.613,23.273,23.864c2.635,9.95,0.314,18.845-6.971,26.18c-16.068,16.176-32.236,32.252-48.369,48.361
			C226.749,160.614,226.24,160.964,225.416,161.641z"/>
		<path fill-rule="evenodd" clip-rule="evenodd" fill="#FFFFFF" d="M296.296,218.843c3.732-27.564-8.85-42.728-38.619-47.242
			c0.934-1.141,1.65-2.19,2.533-3.073c14.254-14.238,28.488-28.498,42.812-42.665c11.756-11.626,29.455-10.898,41.896,1.593
			c12.188,12.237,12.904,30.012,1.459,41.568c-15.922,16.077-31.988,32.011-47.998,48
			C297.937,217.468,297.433,217.855,296.296,218.843z"/>
	</g>
</g>
<g id="Layer_7" display="none">
</g>
<g id="Layer_6">
	<g>
		<path fill="#4ECC1F" d="M426.382,15c20.081,0,36.357,16.277,36.357,36.356v375.026c0,20.078-16.276,36.355-36.357,36.355H51.357
			c-20.08,0-36.357-16.277-36.357-36.355V51.357C15,31.278,31.277,15,51.357,15H426.382 M426.382,0H51.357
			C23.039,0,0,23.039,0,51.357v375.026c0,28.317,23.039,51.355,51.357,51.355h375.024c28.318,0,51.357-23.038,51.357-51.355V51.357
			C477.739,23.039,454.7,0,426.382,0L426.382,0z"/>
	</g>
</g>
<g id="Layer_46" display="none">
	<path display="inline" fill-rule="evenodd" clip-rule="evenodd" d="M256.836,93.546c9.027-9.124,17.298-17.487,26.514-26.802
		c-3.913-3.539-8.225-7.161-12.215-11.111c-4.618-4.575-4.828-9.566-0.957-13.409c3.548-3.517,9.271-3.173,13.545,1.087
		c24.757,24.681,49.481,49.389,74.16,74.147c4.632,4.646,4.988,10.354,1.218,13.922c-4.1,3.876-8.842,3.44-13.892-1.51
		c-3.758-3.682-7.326-7.558-10.749-11.107c-8.593,8.808-16.785,17.206-25.793,26.438c5.516,5.349,12.125,11.737,18.712,18.148
		c2.086,2.031,4.182,4.061,6.149,6.207c3.932,4.292,3.914,9.431,0.059,13.02c-3.368,3.136-8.948,2.926-12.734-0.812
		c-6.339-6.258-12.503-12.693-20.455-20.8c-1.369,2.344-2.14,4.589-3.645,6.105c-23.494,23.625-47.16,47.08-70.574,70.782
		c-4.11,4.161-8.195,5.733-13.563,3.386c-7.424-3.245-14.821-6.55-23.688-10.476c-0.929,1.23-2.276,3.457-4.043,5.27
		c-6.292,6.452-6.361,6.4-14.102,0.614c-11.809,12.01-23.715,24.124-36.438,37.066c-0.676-7.931-1.131-13.863,5.129-19.13
		c8.853-7.45,16.731-16.06,25.195-24.339c-10.745-10.862,3.009-13.43,5.206-19.288c-3.33-7.522-6.571-14.762-9.735-22.035
		c-2.287-5.25-1.25-9.451,3.017-13.662c23.974-23.66,47.707-47.563,71.516-71.389c1.26-1.258,2.457-2.574,4.552-4.775
		c-6.868-6.513-13.482-12.723-20.021-19.017c-3.253-3.131-3.968-6.833-1.751-10.868c2.166-3.944,5.877-4.937,9.813-3.973
		c2.113,0.517,4.148,2.195,5.754,3.811C241.066,77.155,248.96,85.416,256.836,93.546z M211.433,201.789
		c4.931-5.288,8.872-9.514,13.517-14.496c-3.843-3.59-8.019-7.49-12.071-11.277c4.432-4.199,8.488-8.043,13.484-12.774
		c3.452,3.865,7.256,8.125,10.364,11.604c4.74-4.245,9.033-8.087,14.212-12.724c-4.518-4.019-8.685-7.728-11.968-10.65
		c4.206-4.842,7.95-9.149,13.078-15.054c3.833,5.012,7.217,9.436,10.069,13.162c5.075-4.865,9.214-8.835,12.785-12.261
		c-8.105-8.31-16.2-16.61-23.887-24.491c-25.42,25.328-50.881,50.699-76.416,76.142c3.919,3.854,8.009,7.879,13.104,12.893
		c3.669-4.424,7.347-8.858,11.446-13.803C203.682,193.123,207.29,197.16,211.433,201.789z M282.024,117.398
		c8.661-8.574,17.095-16.925,24.934-24.688c-3.628-3.778-7.717-8.033-11.34-11.805c-8.383,8.266-16.837,16.604-25.354,25.002
		C274.355,109.906,278.606,114.061,282.024,117.398z"/>
	<path display="inline" fill-rule="evenodd" clip-rule="evenodd" d="M133.49,283.159c3.536,3.682,6.815,6.801,9.745,10.22
		c4.635,5.408,3.991,13.583-1.188,18.148c-4.85,4.274-12.693,4.127-17.377-0.322c-5.115-4.86-5.418-12.67-0.584-18.083
		C126.989,289.873,130.062,286.779,133.49,283.159z"/>
	
		<rect x="59.392" y="341.943" display="inline" fill-rule="evenodd" clip-rule="evenodd" fill="none" width="354" height="139.742"/>
	<text transform="matrix(1 0 0 1 81.2764 438.2222)" display="inline" font-family="'Muli'" font-size="50">vitamin K OK</text>
</g>
<g id="Layer_47" display="none">
</g>
<g id="Layer_48" display="none">
</g>
<g id="Layer_49" display="none">
</g>
<g id="Layer_50" display="none">
</g>
<g id="Layer_51" display="none">
	<g display="inline">
		<path fill-rule="evenodd" clip-rule="evenodd" d="M251.348,95.869c4.783,0.988,8.967,1.852,13.766,2.842
			c3.296-10.101,6.594-20.087,9.801-30.104c1.543-4.821,4.387-8.092,9.543-9.174c9.709-2.037,17.666,6.172,14.875,15.729
			c-3.113,10.66-6.604,21.209-10.088,32.31c4.5,2.437,8.982,4.865,13.889,7.521c5.538-8.892,10.956-17.542,16.322-26.225
			c2.984-4.828,7.086-7.722,12.916-6.989c9.661,1.215,14.427,10.852,9.404,19.407c-5.543,9.438-11.533,18.614-17.562,28.275
			c3.89,3.345,7.647,6.578,11.818,10.166c7.025-7.944,13.832-15.75,20.768-23.44c3.802-4.216,8.517-5.989,14.102-4.032
			c5.064,1.774,8.525,5.596,8.289,10.794c-0.172,3.777-1.904,8.065-4.288,11.05c-6.497,8.133-13.708,15.697-20.87,23.749
			c2.604,3.292,5.238,6.426,7.65,9.723c3.182,4.349,6.051,8.93,9.297,13.228c8.764,11.597,8.062,22.789,0.095,34.718
			c-16.651,24.929-37.618,45.297-62.841,61.308c-17.461,11.084-36.24,18.901-56.917,21.718
			c-26.577,3.619-51.094-2.972-74.118-15.592c-30.023-16.455-54.037-39.543-73.496-67.695c-8.205-11.873-9.102-22.772-0.104-34.369
			c6.155-7.934,11.898-16.188,18.13-24.714c-6.286-7.12-12.839-14.465-19.302-21.888c-5.871-6.742-5.936-14.606-0.283-19.569
			c5.859-5.144,13.308-4.117,19.393,2.714c6.086,6.834,12.14,13.695,18.514,20.89c4.117-3.351,7.967-6.486,12.231-9.96
			c-5.624-9.083-11.317-17.939-16.659-27.005c-5.033-8.541-0.395-18.279,9.205-19.492c5.8-0.733,9.949,2.132,12.946,6.961
			c5.113,8.235,10.284,16.434,15.665,25.024c4.699-2.428,9.254-4.781,14.264-7.369c-3.306-10.6-6.775-21.097-9.816-31.714
			c-1.82-6.353,1.672-12.645,7.567-14.829c6.105-2.261,12.708,0.102,15.71,5.782c0.911,1.725,1.447,3.658,2.057,5.528
			c2.838,8.691,5.643,17.392,8.63,26.619c3.948-0.552,7.86-0.828,11.588-1.803c0.994-0.26,1.999-2.657,2.026-4.09
			c0.18-9.889-0.006-19.785,0.15-29.675c0.089-5.723,2.858-9.945,8.252-12.139c5.047-2.052,10.09-1.138,13.27,2.913
			c2.35,2.992,3.83,7.364,4.029,11.209C251.701,74.57,251.348,85.006,251.348,95.869z M311.186,197.532
			c0.308-40.548-32.25-73.762-72.688-74.152c-41.43-0.4-74.992,31.907-75.367,72.549c-0.381,40.851,32.098,74.426,71.611,75.454
			C276.438,272.465,311.447,238.704,311.186,197.532z"/>
		<path fill-rule="evenodd" clip-rule="evenodd" d="M237.072,238.755c-22.504-0.038-41.368-18.755-41.4-41.08
			c-0.031-23.176,18.725-42.029,41.646-41.865c22.445,0.162,41.098,18.855,41.205,41.297
			C278.634,219.68,259.611,238.794,237.072,238.755z"/>
	</g>
	
		<rect x="33.837" y="400.943" display="inline" fill-rule="evenodd" clip-rule="evenodd" fill="none" width="412.282" height="139.742"/>
	<text transform="matrix(1 0 0 1 39.417 437.2222)" display="inline" font-family="'Muli'" font-size="50">eye ointment OK</text>
</g>
<g id="Layer_52" display="none">
	<g display="inline">
		<path fill-rule="evenodd" clip-rule="evenodd" d="M258.239,229.037c-10.696,0-20.795,0-31.335,0
			c-0.124,2.103-0.316,3.865-0.318,5.627c-0.022,22.536-0.01,45.071-0.021,67.606c-0.003,6.101-2.327,9.931-7.006,11.672
			c-6.864,2.558-13.343-1.812-13.359-9.159c-0.052-23.521-0.083-47.043,0.034-70.565c0.019-3.614-0.631-5.401-4.826-5.382
			c-4.073,0.019-4.995,1.621-4.977,5.308c0.113,23.1,0.156,46.199-0.062,69.298c-0.027,2.82-1.061,6.231-2.86,8.294
			c-2.812,3.223-6.892,4.06-11.14,2.039c-4.182-1.988-5.877-5.406-5.889-9.836c-0.027-9.718-0.036-19.435-0.035-29.152
			c0.004-13.518-0.089-27.04,0.104-40.556c0.056-3.935-0.991-5.548-5.221-5.366c-7.45,0.32-14.927,0.104-22.392,0.087
			c-1.373-0.003-2.746-0.125-4.83-0.226c1.422-4.406,2.601-8.366,3.97-12.259c10.156-28.885,20.273-57.784,30.644-86.592
			c1.125-3.123,0.105-4.989-2.151-5.647c-1.076-0.314-3.779,1.785-4.324,3.301c-5.057,14.08-9.776,28.279-14.656,42.423
			c-1.688,4.89-3.312,9.824-5.397,14.548c-1.849,4.188-7.703,5.955-11.962,4.083c-4.134-1.818-6.709-7.162-5.258-11.253
			c8.362-23.575,16.717-47.152,25.19-70.686c2.52-6.997,6.647-12.705,14.189-15.063c1.039-0.325,2.139-0.648,3.212-0.651
			c13.662-0.04,27.343,0.429,40.979-0.149c12.329-0.524,21.219,7.873,24.434,16.994c5.854,16.609,11.725,33.212,17.59,49.817
			c2.189,6.195,4.339,12.406,6.592,18.578c2.014,5.521,0.059,10.194-5.372,12.375c-4.475,1.797-10.404-0.548-12.007-5.398
			c-5.83-17.641-12.125-35.128-18.241-52.674c-0.415-1.19-0.504-2.689-1.297-3.51c-1.237-1.281-3.243-3.198-4.394-2.887
			c-2.17,0.587-3.152,2.536-2.105,5.367c4.609,12.459,8.954,25.017,13.377,37.545c6.888,19.51,13.768,39.023,20.617,58.546
			C258.046,226.417,258.018,227.42,258.239,229.037z"/>
		<path fill-rule="evenodd" clip-rule="evenodd" d="M321.448,213.585c0,4.516,0,8.226,0,12.265c-12.001,0-23.612,0-35.848,0
			c0-3.835,0-7.648,0-11.462c-0.369-0.166-0.738-0.332-1.106-0.498c-3.527,3.503-7.049,7.014-10.587,10.508
			c-1.199,1.185-2.314,2.506-3.684,3.455c-2.667,1.848-5.636,2.389-7.969-0.33c-2.268-2.643-1.689-5.601,0.619-7.994
			c4.89-5.065,9.824-10.096,14.905-14.969c13.626-13.069,7.357-10.282,26.68-11.155c9.635-0.436,17.041,1.853,23.234,9.494
			c4.673,5.767,10.44,10.646,15.703,15.936c3.019,3.035,3.489,6.648,1.206,8.908c-2.639,2.609-5.933,2.254-9.278-1.059
			c-3.603-3.566-7.152-7.187-10.765-10.743C323.828,215.222,322.917,214.686,321.448,213.585z"/>
		<path fill-rule="evenodd" clip-rule="evenodd" d="M180.596,63.26c-0.53-13.294,10.476-22.043,21.491-22.257
			c11.429-0.222,22.524,9.354,22.185,22.581c-0.315,12.299-9.597,21.418-22.31,21.326C189.421,84.819,180.601,75.881,180.596,63.26z
			"/>
		<path fill-rule="evenodd" clip-rule="evenodd" d="M303.47,156.353c9.525,0.021,17.139,7.712,17.059,17.234
			c-0.074,9.028-8.177,16.955-17.201,16.828c-9.132-0.13-16.942-8.104-16.844-17.196C286.586,163.874,294.18,156.332,303.47,156.353
			z"/>
		<path fill-rule="evenodd" clip-rule="evenodd" d="M318.739,256.81c-3.86-3.186-7.304-6.025-10.988-9.065
			c5.162-4.853,9.507-8.939,14.441-13.58c3.602,3.716,7.764,7.623,11.445,11.938c2.686,3.146,2.386,8.277-0.673,11.674
			c-5.54,6.152-11.335,12.08-17.189,17.937c-2.462,2.463-5.511,2.967-8.236,0.304c-2.733-2.673-2.24-5.682,0.145-8.239
			C310.93,264.296,314.435,261.053,318.739,256.81z"/>
		<path fill-rule="evenodd" clip-rule="evenodd" d="M288.421,258.103c3.332,3.003,6.789,5.882,9.961,9.047
			c3.18,3.172,3.326,6.349,0.829,8.9c-2.389,2.442-5.68,2.199-8.858-0.986c-5.369-5.379-10.711-10.795-15.846-16.396
			c-4.521-4.932-4.283-9.787,0.344-14.503c3.056-3.115,6.161-6.181,9.258-9.255c0.288-0.286,0.678-0.47,0.978-0.673
			c4.301,4.268,8.553,8.487,13.729,13.626c-3.464,2.607-7.057,5.312-10.649,8.016C288.251,256.62,288.337,257.361,288.421,258.103z"
			/>
	</g>
	
		<rect x="57.392" y="341.943" display="inline" fill-rule="evenodd" clip-rule="evenodd" fill="none" width="366" height="139.742"/>
	<text transform="matrix(1 0 0 1 121.2139 378.2222)" display="inline"><tspan x="0" y="0" font-family="'Muli'" font-size="50">exam and </tspan><tspan x="-36.377" y="60" font-family="'Muli'" font-size="50">bath in room</tspan></text>
</g>
<g id="Layer_53">
</g>
<g id="Layer_54" display="none">
</g>
<g id="Layer_55" display="none">
	<g display="inline">
		<path fill-rule="evenodd" clip-rule="evenodd" d="M211.941,129.064c-0.852,3.698,0.203,7.336,0.416,10.991
			c1.209,20.706-14.68,37.679-35.517,38.135c-4.876,0.107-9.829-1.446-14.643,0.443c-1.026-3.185-4.335-3.273-6.604-4.616
			c-14.586-8.625-21.289-23.464-18.997-40.129c2.106-15.336,10.743-27.462,18.106-40.249c7.851-13.631,13.973-27.841,16.336-43.5
			c0.055-0.366,0.085-0.764,0.253-1.078c1.049-1.957-0.167-5.744,3.222-5.66c3.153,0.077,2.645,3.469,3.121,5.713
			c3.587,16.884,10.252,32.536,19.084,47.288C202.928,106.774,208.449,117.439,211.941,129.064z M174.73,59.095
			c-4.736,18.929-14.864,34.927-24.485,51.266c-6.745,11.452-11.354,23.786-8.587,37.671c3.36,16.872,18.879,27.569,37.581,25.686
			c16.667-1.68,28.87-15.365,28.641-32.095c-0.124-9.055-2.07-17.685-6.096-25.8C192.502,97.112,180.115,79.895,174.73,59.095z"/>
		<g>
			<path fill-rule="evenodd" clip-rule="evenodd" d="M205.311,216.495c9.908,10.084,19.41,19.755,29.445,29.968
				c-4.869,4.944-9.941,10.252-15.186,15.383c-6.874,6.726-6.881,6.615-0.268,13.124c5.688,5.6,11.307,11.272,16.83,17.032
				c5.982,6.238,6.168,13.889,0.652,19.246c-4.781,4.648-12.9,4.361-18.387-1.189c-12.433-12.574-25.068-24.99-36.801-38.202
				c-9.164-10.321-10.539-21.354,0.661-32.149C190.023,232.221,197.475,224.408,205.311,216.495z"/>
			<path fill-rule="evenodd" clip-rule="evenodd" d="M286.899,170.506c0,10.395,0,18.997,0,28.16c-27.151,0-53.683,0-80.926,0
				c0-9.164,0-17.791,0-26.418c-0.481-0.263-0.96-0.526-1.439-0.791c-3.599,3.413-7.272,6.751-10.782,10.253
				c-6.475,6.456-12.51,13.409-19.424,19.342c-3.199,2.744-7.924,4.511-12.16,5.023c-4.522,0.547-8.479-2.338-10.145-6.89
				c-1.746-4.774-1.172-9.59,2.396-13.375c6.66-7.066,13.566-13.903,20.424-20.779c10.224-10.248,20.623-20.322,30.691-30.717
				c5.363-5.537,11.421-8.358,19.221-8.218c14.297,0.258,28.604,0.262,42.9,0.01c8.171-0.145,14.561,2.712,20.271,8.544
				c16.119,16.465,32.495,32.679,48.883,48.878c4.168,4.122,6.066,8.851,4.622,14.464c-1.264,4.913-5.187,8.333-9.901,8.047
				c-4.311-0.262-9.367-2.031-12.525-4.877c-9.176-8.27-17.543-17.436-26.293-26.191
				C291.426,173.68,289.809,172.716,286.899,170.506z"/>
			<path fill-rule="evenodd" clip-rule="evenodd" d="M246.625,42.693c21.2,0.087,38.514,17.517,37.957,39.042
				c-0.561,21.732-17.119,37.072-38.051,37.046c-21.41-0.028-37.467-15.731-38.023-37.746
				C207.98,60.204,225.922,42.607,246.625,42.693z"/>
			<path fill-rule="evenodd" clip-rule="evenodd" d="M287.928,216.308c8.558,8.834,17.262,17.315,25.361,26.339
				c6.547,7.296,6.18,20.008-0.979,27.794c-12.484,13.586-25.348,26.836-38.342,39.938c-5.484,5.531-13.433,5.436-18.422,0.639
				c-5.342-5.135-5.523-12.02,0.229-18.309c6.419-7.018,13.138-13.789,20.116-20.247c3.293-3.047,3.07-5.005,0.068-7.833
				c-6.213-5.85-12.232-11.901-18.348-17.886C267.801,236.515,277.469,226.806,287.928,216.308z"/>
		</g>
		<path fill-rule="evenodd" clip-rule="evenodd" fill="#FBFDFC" d="M174.658,59.733c5.385,20.8,17.771,38.017,27.054,56.728
			c4.025,8.115,5.972,16.745,6.095,25.8c0.229,16.73-11.973,30.416-28.641,32.095c-18.701,1.883-34.221-8.813-37.581-25.686
			c-2.767-13.885,1.842-26.219,8.588-37.671C159.793,94.66,169.921,78.662,174.658,59.733z"/>
	</g>
	
		<rect x="52.392" y="341.943" display="inline" fill-rule="evenodd" clip-rule="evenodd" fill="none" width="378" height="139.742"/>
	<text transform="matrix(1 0 0 1 105.4541 438.2222)" display="inline" font-family="'Muli'" font-size="50">bathing OK</text>
</g>
<g id="Layer_34" display="none">
</g>
<g id="Layer_35" display="none">
	<g display="inline">
		<path fill-rule="evenodd" clip-rule="evenodd" d="M307.727,188.804c0,3.43-0.008,6.86,0.003,10.29
			c0.011,3.226-0.216,6.48,0.133,9.671c0.406,3.71-1.468,4.385-4.518,4.378c-21.038-0.044-42.075-0.064-63.112-0.005
			c-3.387,0.008-4.944-0.887-4.652-4.745c0.413-5.469,0.175-10.99,0.13-16.488c-0.009-1.045-0.407-2.086-0.874-4.31
			c-3.866,3.687-7.122,6.67-10.24,9.789c-5.829,5.831-11.247,12.129-17.505,17.447c-2.934,2.492-7.319,3.933-11.229,4.433
			c-3.822,0.491-7.165-2.064-8.617-5.878c-1.664-4.375-1.198-8.754,2.098-12.249c5.878-6.23,11.955-12.273,18.005-18.339
			c9.245-9.273,18.66-18.383,27.766-27.792c4.933-5.098,10.567-7.436,17.669-7.293c12.617,0.255,25.247,0.262,37.863,0.01
			c7.291-0.146,12.975,2.404,18.052,7.58c14.374,14.647,28.944,29.103,43.557,43.513c3.916,3.862,5.814,8.218,4.341,13.534
			c-1.202,4.338-4.788,7.221-8.906,6.959c-3.808-0.242-8.265-1.838-11.055-4.364c-8.249-7.469-15.798-15.71-23.667-23.602
			c-1.104-1.106-2.47-1.953-3.714-2.917C308.744,188.551,308.236,188.678,307.727,188.804z"/>
		<path fill-rule="evenodd" clip-rule="evenodd" d="M222.44,67.012c0,19.738,0,38.649,0,57.958c-25.211,0-50.182,0-75.723,0
			c0-19.144,0-38.29,0-57.927c-3.74,0-6.935,0.086-10.122-0.018c-6.609-0.216-11.99-5.703-12.032-12.154
			c-0.046-6.717,5.399-12.282,12.358-12.292c31.555-0.044,63.112-0.034,94.668,0.029c7.235,0.014,12.261,5.129,12.288,12.165
			c0.026,6.958-5.106,12.109-12.237,12.232C228.767,67.054,225.891,67.012,222.44,67.012z M222.821,61.986
			c3.132,0,6.023,0.197,8.882-0.042c5.42-0.455,8.957-5.763,6.102-9.809c-1.566-2.221-5.037-4.232-7.725-4.332
			c-12.262-0.454-24.551-0.203-36.829-0.195c-18.258,0.012-36.514,0.006-54.771,0.064c-5.119,0.016-8.213,2.624-8.341,6.77
			c-0.138,4.5,2.919,7.363,8.146,7.525c2.555,0.079,5.115,0.013,7.827,0.013c0.362-1.783,0.661-3.251,0.949-4.668
			c25.195,0,50.034,0,75.14,0C222.405,58.848,222.585,60.208,222.821,61.986z"/>
		<path fill-rule="evenodd" clip-rule="evenodd" d="M271.598,73.102c18.954-0.031,34.767,15.554,34.252,34.642
			c-0.531,19.684-14.974,33.237-33.87,33.443c-18.977,0.206-33.878-13.829-34.241-34.05
			C237.406,88.614,253.165,73.132,271.598,73.102z"/>
		<path fill-rule="evenodd" clip-rule="evenodd" d="M280.63,254.718c8.832-8.482,17.017-16.438,25.379-24.204
			c0.713-0.663,3.152-0.63,3.866,0.05c7.235,6.898,14.496,13.795,21.31,21.103c6.159,6.605,5.98,18.124-0.588,25.256
			c-11.15,12.107-22.617,23.93-34.203,35.623c-5.065,5.113-12.339,4.995-16.837,0.443c-4.615-4.673-4.587-10.766,0.646-16.418
			c5.7-6.158,11.617-12.144,17.788-17.827c2.966-2.732,2.755-4.514,0.067-7.049C292.454,266.409,287.01,260.954,280.63,254.718z"/>
		<path fill-rule="evenodd" clip-rule="evenodd" d="M234.896,228.73c8.968,8.955,17.572,17.548,27.1,27.062
			c-5.397,5.05-10.748,9.921-15.941,14.956c-4.397,4.263-4.294,4.58-0.078,8.801c5.709,5.718,11.461,11.397,17.033,17.247
			c3.903,4.1,4.591,9.394,2.19,13.838c-2.325,4.304-6.782,6.482-12.375,5.252c-2.343-0.516-4.763-2.062-6.483-3.799
			c-11.032-11.143-22.271-22.124-32.667-33.845c-8.29-9.346-9.569-19.146,0.67-28.986
			C221.204,242.664,227.82,235.815,234.896,228.73z"/>
		<path fill-rule="evenodd" clip-rule="evenodd" d="M146.617,139.816c25.429,0,50.255,0,75.827,0c0,5.167,0.363,10.292-0.116,15.338
			c-0.379,4.004-11.301,7.767-14.366,4.972c-3.782-3.448-6.977-4.057-10.752-0.064c-2.352,2.487-5.243,2.337-7.685-0.139
			c-3.29-3.338-6.38-3.889-9.894-0.203c-2.67,2.801-5.814,2.717-8.528-0.007c-3.506-3.519-6.64-3.236-9.935,0.249
			c-2.247,2.374-4.758,1.873-7.502,0.558c-5.352-2.563-8.524-6.035-7.136-12.51C147.057,145.56,146.617,142.903,146.617,139.816z"/>
		<path fill-rule="evenodd" clip-rule="evenodd" d="M222.28,127.869c0,3.142,0,5.851,0,9.134c-25.154,0-50.187,0-75.439,0
			c0-2.945,0-5.803,0-9.134C171.885,127.869,196.808,127.869,222.28,127.869z"/>
	</g>
	
		<rect x="51.392" y="341.943" display="inline" fill-rule="evenodd" clip-rule="evenodd" fill="none" width="378" height="147.775"/>
	<text transform="matrix(1 0 0 1 111.2041 378.2222)" display="inline"><tspan x="0" y="0" font-family="'Muli'" font-size="50">wipe down </tspan><tspan x="-47.803" y="60" font-family="'Muli'" font-size="50">before contact</tspan></text>
</g>
<g id="Layer_36" display="none">
	<g display="inline">
		<path fill-rule="evenodd" clip-rule="evenodd" d="M250.39,229.906c-9.74,0-18.757,0.176-27.761-0.087
			c-3.638-0.105-4.651,0.988-4.63,4.59c0.145,23.266,0.098,46.532,0.047,69.8c-0.012,5.418-1.842,9.693-7.472,11.787
			c-5.94,2.21-12.957-2.131-13.099-8.584c-0.158-7.251-0.046-14.508-0.046-21.763c0.002-16.972-0.09-33.945,0.079-50.917
			c0.038-3.823-1.248-4.935-4.99-4.951c-3.891-0.016-4.904,1.453-4.887,5.099c0.11,23.405-0.002,46.812,0.082,70.217
			c0.019,5.178-1.54,8.866-6.766,10.823c-5.107,1.912-11.68-0.98-12.868-6.316c-0.528-2.374-0.679-4.871-0.684-7.313
			c-0.046-22.306-0.011-44.611-0.028-66.917c-0.004-5.464-0.053-5.47-5.479-5.472c-8.863-0.004-17.726-0.001-27.382-0.001
			c2.07-6.103,3.865-11.584,5.786-17.022c9.877-27.978,19.74-55.96,29.751-83.891c1.078-3.003-0.737-4.6-2.512-5.03
			c-1.156-0.28-3.664,1.633-4.275,3.101c-2.351,5.635-4.218,11.474-6.194,17.26c-4.286,12.553-8.459,25.145-12.833,37.666
			c-1.222,3.495-2.904,6.771-7.264,7.515c-4.188,0.716-7.945-0.239-9.898-3.905c-1.267-2.376-2.019-5.94-1.203-8.368
			c5.867-17.469,12.18-34.788,18.38-52.144c2.597-7.268,4.965-14.638,7.982-21.729c3.757-8.823,10.396-13.44,20.437-13.175
			c12.583,0.332,25.183,0.07,37.775,0.085c11.463,0.014,19.545,5.158,23.641,15.984c5.512,14.572,10.523,29.334,15.736,44.019
			c3.08,8.677,6.153,17.357,9.191,26.049c2.115,6.049-0.02,11.017-5.725,12.888c-4.739,1.555-10.142-0.546-12.021-6.222
			c-5.019-15.156-10.424-30.185-15.671-45.267c-1.247-3.585-2.158-7.337-3.854-10.694c-0.78-1.544-3.469-3.545-4.604-3.183
			c-2.104,0.67-2.88,2.716-1.834,5.623c11.239,31.248,22.253,62.576,33.298,93.895C249.263,225.245,249.665,227.23,250.39,229.906z"
			/>
		<path fill-rule="evenodd" clip-rule="evenodd" d="M171.502,61.912c0.159-12.618,10.13-22.401,22.933-21.894
			c11.129,0.441,21.751,9.386,21.322,23.162c-0.376,12.086-10.165,21.318-22.844,21.087
			C180.246,84.036,171.34,74.737,171.502,61.912z"/>
		<path fill-rule="evenodd" clip-rule="evenodd" d="M325.676,152.625c-2.217,8.87-4.312,16.871-6.204,24.921
			c-2.574,10.954-5.345,21.787-13.005,30.582c-0.781,0.896-1.134,2.168-1.68,3.268c-1.378,2.775-1.168,4.454,2.481,5.134
			c5.27,0.982,8.891,5.072,8.806,10.358c-0.068,4.273-0.613,8.741-2.026,12.74c-1.805,5.106-6.49,7.175-11.965,6.473
			c-4.999-0.64-8.766-3.635-9.289-8.912c-0.519-5.226-0.608-10.75,0.509-15.838c3.688-16.806,7.693-33.557,12.202-50.16
			C308.132,161.513,315.558,156.121,325.676,152.625z M310.671,230.021c-0.458-3.225-0.632-6.367-4.297-7.41
			c-2.754-0.784-5.663-0.191-6.454,2.736c-0.93,3.444-1.28,7.192-1.005,10.74c0.107,1.372,2.534,3.448,4.058,3.592
			c1.756,0.167,4.372-0.967,5.366-2.402C309.724,235.279,309.95,232.479,310.671,230.021z M305.344,206.876
			c-1.793-1.46-2.868-3.009-3.874-2.965c-0.988,0.043-2.582,1.654-2.654,2.667c-0.066,0.914,1.472,2.598,2.479,2.747
			C302.269,209.468,303.468,208.087,305.344,206.876z"/>
		<path fill-rule="evenodd" clip-rule="evenodd" d="M356.448,189.32c-3.535,7.986-8.994,14.255-17.466,16.369
			c-8.392,2.094-17.149,2.727-26.342,4.088c2.821-5.574,5.265-10.475,7.811-15.32c0.245-0.465,1.108-0.761,1.726-0.852
			c11.051-1.615,22.107-3.189,33.165-4.75C355.565,188.824,355.826,189.05,356.448,189.32z"/>
		<path fill-rule="evenodd" clip-rule="evenodd" d="M280.956,213.23c-3.517-0.394-7.101-0.486-10.534-1.25
			c-5.771-1.284-9.075-5.458-9.262-10.979c-0.173-5.136,2.982-9.697,8.313-11.358c5.367-1.671,10.986-1.981,15.843,1.104
			c2.393,1.52,4.612,4.38,5.405,7.075c0.987,3.355,3.189,6.699,1.482,10.745c-1.012,2.4-1.785,3.998-4.688,3.899
			c-2.167-0.074-4.35,0.323-6.525,0.511C280.979,213.062,280.967,213.146,280.956,213.23z M276.191,206.762
			c1.715-0.306,3.327-0.557,4.923-0.887c2.9-0.601,4.479-2.81,3.954-5.333c-0.398-1.911-2.219-4.564-3.865-4.956
			c-3.203-0.764-6.875-0.733-10.057,0.099c-1.576,0.412-3.367,3.293-3.45,5.129c-0.071,1.596,1.84,3.69,3.409,4.823
			C272.405,206.575,274.485,206.432,276.191,206.762z"/>
	</g>
	
		<rect x="57.392" y="341.943" display="inline" fill-rule="evenodd" clip-rule="evenodd" fill="none" width="358" height="139.742"/>
	<text transform="matrix(1 0 0 1 105.6299 378.2222)" display="inline"><tspan x="0" y="0" font-family="'Muli'" font-size="50">episiotomy</tspan><tspan x="43.348" y="60" font-family="'Muli'" font-size="50">desired</tspan></text>
</g>
<g id="Layer_43" display="none">
</g>
<g id="Layer_37">
	<g>
		<path fill-rule="evenodd" clip-rule="evenodd" d="M208.169,169.226c0,6.433,0.114,11.062-0.021,15.684
			c-0.466,15.866,1.911,13.083-12.133,13.25c-19.986,0.237-39.976,0.072-59.965,0.06c-9.133-0.005-9.146-0.026-9.188-9.322
			c-0.027-5.966-0.005-11.934-0.005-17.9c-0.529-0.25-1.058-0.5-1.587-0.75c-3.461,3.292-6.991,6.512-10.365,9.89
			c-6.584,6.591-12.718,13.696-19.774,19.725c-3.32,2.836-8.226,4.582-12.634,5.167c-4.598,0.611-8.422-2.56-10.003-7.047
			c-1.754-4.979-0.906-9.878,2.877-13.794c6.737-6.974,13.613-13.815,20.462-20.681c10.209-10.233,20.545-20.339,30.624-30.697
			c5.356-5.504,11.476-8.191,19.242-8.044c14.462,0.272,28.937,0.253,43.398,0.008c7.729-0.132,13.908,2.453,19.318,7.93
			c16.438,16.642,33.003,33.156,49.632,49.605c4.316,4.27,6.317,9.154,4.626,14.954c-1.404,4.816-5.411,8.207-10.104,7.841
			c-4.317-0.336-9.303-2.239-12.482-5.121c-9.143-8.279-17.499-17.421-26.217-26.172
			C212.581,172.516,211.014,171.496,208.169,169.226z"/>
		<path fill-rule="evenodd" clip-rule="evenodd" d="M167.545,41c21.016-0.02,38.645,17.399,38.206,38.716
			c-0.453,21.997-16.654,37.406-37.933,37.679c-21.279,0.274-37.826-15.411-38.572-37.729C128.55,58.809,146.616,41.02,167.545,41z"
			/>
		<path fill-rule="evenodd" clip-rule="evenodd" d="M125.831,215.375c10.299,10.239,19.932,19.815,30.897,30.716
			c-5.902,5.416-11.806,10.696-17.551,16.141c-5.663,5.367-5.538,5.572,0.077,11.112c5.956,5.877,11.856,11.812,17.666,17.833
			c6.063,6.283,6.376,13.764,0.985,19.264c-4.929,5.027-12.954,4.805-18.774-1.082c-12.567-12.71-25.431-25.19-37.147-38.657
			c-8.951-10.287-10.393-20.579,0.757-31.694C110.512,231.262,118.084,223.318,125.831,215.375z"/>
		<path fill-rule="evenodd" clip-rule="evenodd" d="M177.821,246.049c10.779-10.649,20.438-20.191,31.234-30.856
			c6.254,6.608,12.812,13.103,18.836,20.06c3.869,4.471,7.854,9.233,10.154,14.569c3.013,6.988,0.579,14.207-4.31,19.556
			c-12.551,13.73-25.407,27.208-38.64,40.282c-7.776,7.681-18.298,5.062-21.969-4.75c-2.134-5.704,0.942-10.041,4.457-13.812
			c6.081-6.529,12.247-13.039,18.94-18.915c4.169-3.661,3.329-5.87-0.194-8.995C190.112,257.678,184.122,251.91,177.821,246.049z"/>
		<path fill-rule="evenodd" clip-rule="evenodd" d="M365.604,111.631c-5.196,19.944-9.657,38.393-14.955,56.598
			c-1.598,5.493-5.477,10.334-8.396,15.425c-1.885,3.291-4.032,6.433-5.867,9.75c-2.3,4.156-1.518,6.458,3.738,7.365
			c6.424,1.108,11.051,5.711,11.48,11.918c0.456,6.609-0.393,13.67-2.388,19.993c-2.27,7.191-8.874,10.067-16.519,9.179
			c-7.143-0.831-11.864-5.197-13.399-12.773c-2.271-11.209,0.896-21.938,3.423-32.639c4.585-19.425,9.202-38.852,14.36-58.129
			C340.793,124.449,351.042,116.811,365.604,111.631z M344.531,219.61c-0.69-4.514-0.869-8.913-5.941-10.422
			c-3.804-1.132-7.946-0.39-9.019,3.688c-1.306,4.967-1.652,10.35-1.343,15.489c0.105,1.72,3.379,4.333,5.429,4.565
			c2.349,0.266,5.972-0.971,7.201-2.795C342.866,227.155,343.384,223.171,344.531,219.61z M331.263,192.784
			c2.007-2.734,4.047-4.3,3.91-5.646c-0.154-1.529-2.255-2.861-3.51-4.279c-1.323,1.318-3.473,2.498-3.727,3.999
			C327.706,188.211,329.548,189.918,331.263,192.784z"/>
		<path fill-rule="evenodd" clip-rule="evenodd" d="M408.163,162.85c-4.789,10.936-12.269,19.618-23.771,22.598
			c-11.825,3.064-24.218,3.933-37.197,5.888c3.948-7.802,7.352-14.628,10.899-21.378c0.34-0.646,1.55-1.044,2.411-1.17
			c15.379-2.246,30.767-4.436,46.156-6.606C406.968,162.138,407.326,162.464,408.163,162.85z"/>
		<path fill-rule="evenodd" clip-rule="evenodd" d="M303.197,196.166c-5.073-0.614-10.253-0.777-15.197-1.944
			c-7.745-1.828-12.125-7.547-12.429-15.048c-0.291-7.165,4.058-13.525,11.481-15.869c7.462-2.356,15.279-2.793,22.055,1.466
			c3.34,2.1,6.438,6.054,7.587,9.802c1.479,4.824,4.589,9.705,1.915,15.498c-1.331,2.883-2.174,4.891-5.7,4.895
			c-3.218,0.003-6.435,0.501-9.653,0.781C303.236,195.887,303.217,196.026,303.197,196.166z M296.595,187.029
			c2.072-0.335,3.938-0.648,5.807-0.933c4.519-0.69,6.753-3.541,6.603-7.88c-0.155-4.451-2.946-6.935-7.337-7.216
			c-3.392-0.218-6.827-0.243-10.208,0.055c-4.33,0.382-7.028,2.777-7.147,7.359c-0.111,4.276,2.203,6.707,6.264,7.566
			C292.609,186.41,294.672,186.698,296.595,187.029z"/>
	</g>
	<rect x="57.392" y="341.943" fill-rule="evenodd" clip-rule="evenodd" fill="none" width="380" height="139.742"/>
	<text transform="matrix(1 0 0 1 99.0762 378.2222)"><tspan x="0" y="0" font-family="'Muli'" font-size="50">circumcision </tspan><tspan x="60.901" y="60" font-family="'Muli'" font-size="50">desired</tspan></text>
</g>
<g id="Layer_44" display="none">
</g>
<g id="Layer_38" display="none">
	<g display="inline">
		<path fill-rule="evenodd" clip-rule="evenodd" d="M267.681,216.935c0.001,29.347,0.026,58.695-0.017,88.042
			c-0.011,7.504-2.079,10.795-7.523,12.603c-6.4,2.125-13.31-1.68-14.729-8.289c-0.502-2.335-0.659-4.783-0.662-7.18
			c-0.044-31.246-0.03-62.493-0.036-93.74c0-1.553,0.391-3.285-0.166-4.614c-0.707-1.69-2.271-4.335-3.328-4.273
			c-1.801,0.106-4.022,1.658-5.072,3.256c-0.904,1.374-0.531,3.661-0.533,5.544c-0.027,32.456-0.018,64.911-0.035,97.366
			c-0.005,6.831-2.191,10.163-7.677,11.918c-6.992,2.236-13.44-1.862-14.248-9.188c-0.265-2.392-0.138-4.829-0.138-7.246
			c-0.003-57.486,0.017-114.973-0.042-172.461c-0.004-2.828,1.423-7.241-3.232-7.366c-4.992-0.135-3.775,4.408-3.788,7.459
			c-0.07,18.472-0.032,36.944-0.032,55.416c0,1.554,0.035,3.11-0.032,4.661c-0.24,5.499-4.376,10.183-9.01,10.25
			c-4.89,0.071-9.641-4.725-9.703-10.242c-0.132-11.738-0.051-23.478-0.054-35.217c-0.003-11.74-0.021-23.479,0.005-35.218
			c0.029-13.134,11.395-25.891,24.44-26.216c19.15-0.476,38.328-0.483,57.477,0.002c12.422,0.313,23.933,12.465,24.061,24.88
			c0.244,23.648,0.124,47.301,0.038,70.951c-0.022,5.979-4.498,10.965-9.43,11.047c-5.071,0.084-9.097-4.686-9.117-11.137
			c-0.061-19.68-0.024-39.36-0.035-59.04c-0.001-1.553,0.379-3.32-0.231-4.598c-0.63-1.316-2.259-2.979-3.444-2.974
			c-1.202,0.004-2.836,1.65-3.472,2.967c-0.615,1.272-0.229,3.043-0.23,4.595C267.677,158.238,267.679,187.586,267.681,216.935z
			 M261.587,152.493c0-4.644,0-8.474,0-12.879c-5.012,0-9.567,0-14.542,0c0-5.026,0-9.47,0-14.029c-4.299,0-8.147,0-12.602,0
			c0,4.957,0,9.511,0,14.607c-5.18,0-9.752,0-14.358,0c0,4.287,0,8.006,0,12.227c4.874,0,9.454,0,14.803,0c0,5.201,0,9.907,0,14.6
			c4.478,0,8.158,0,12.435,0c0-4.989,0-9.562,0-14.525C252.354,152.493,256.798,152.493,261.587,152.493z"/>
		<path fill-rule="evenodd" clip-rule="evenodd" d="M263.947,63.065c0.011,12.259-9.685,22.187-21.726,22.246
			c-13.03,0.064-23.54-9.929-23.521-22.367c0.018-11.97,10.778-22.384,23.14-22.392C254.066,40.544,263.938,50.597,263.947,63.065z"
			/>
	</g>
	
		<rect x="61.392" y="341.943" display="inline" fill-rule="evenodd" clip-rule="evenodd" fill="none" width="366" height="139.742"/>
	<text transform="matrix(1 0 0 1 183.1611 378.2222)" display="inline"><tspan x="0" y="0" font-family="'Muli'" font-size="50">meet </tspan><tspan x="-81.75" y="60" font-family="'Muli'" font-size="50">pediatrician</tspan></text>
</g>
<g id="Layer_39" display="none">
	<g display="inline">
		<path fill-rule="evenodd" clip-rule="evenodd" d="M239.518,38.834c23.324,0,46.656,0.342,69.973-0.105
			c19.652-0.377,40.368,13.46,40.989,40.602c0.637,27.809,0.328,55.645,0.085,83.466c-0.209,23.845-17.97,41.108-41.727,41.107
			c-46.483,0-92.967-0.008-139.449-0.011c-22.418-0.002-39.998-15.449-40.509-37.516c-0.712-30.799-0.559-61.639,0.137-92.44
			c0.427-18.942,17.929-34.888,37.028-35.033c24.49-0.187,48.981-0.046,73.473-0.046C239.518,38.85,239.518,38.842,239.518,38.834z
			 M239.371,183.952c0,0.019,0,0.037,0,0.056c22.664,0,45.328,0.004,67.992-0.002c15.245-0.004,23.062-7.782,23.051-23.067
			c-0.021-27.323-0.086-54.647-0.176-81.972c-0.039-11.834-8.227-20.249-20.045-20.267c-47.328-0.073-94.655-0.067-141.982,0.008
			c-11.199,0.018-19.686,7.824-19.809,18.908c-0.314,28.657-0.381,57.321-0.134,85.979c0.108,12.571,8.599,20.327,21.112,20.347
			C192.711,183.977,216.041,183.952,239.371,183.952z"/>
		<path fill-rule="evenodd" clip-rule="evenodd" d="M263.375,293.056c0-15.688,0-30.645,0-46.56
			c-3.289,1.586-5.806,3.109-8.527,4.022c-2.605,0.875-5.688,2.05-8.078,1.378c-2.442-0.688-5.434-3.16-6.031-5.42
			c-0.431-1.63,2.199-5.08,4.277-6.173c6.167-3.245,12.723-5.761,19.154-8.493c4.066-1.728,7.728-1.17,11.011,1.988
			c5.163,4.967,10.64,9.627,15.553,14.823c1.734,1.834,3.022,4.833,3.11,7.35c0.35,9.986,0.016,19.995,0.205,29.991
			c0.084,4.426-2.106,6.828-6.053,6.993C280.051,293.291,272.08,293.056,263.375,293.056z"/>
		<path fill-rule="evenodd" clip-rule="evenodd" d="M234.16,257.279c3.328,3.843,3.339,6.063-0.895,10.777
			c4.207,5.73,4.204,7.438,1.016,11.181c0.599,4.087,2.33,7.854,1.129,9.89c-1.297,2.196-5.23,3.374-8.207,3.905
			c-3.715,0.664-7.726,0.743-11.426,0.07c-2.783-0.506-6.388-1.986-7.577-4.157c-1.099-2.004,0.53-5.503,1.158-9.68
			c-3.156-4.181-3.145-6.035,1.225-10.773c-4.397-5.534-4.402-7.328-1.002-11.19c-0.655-3.942-2.46-7.67-1.3-9.729
			c1.264-2.244,5.156-3.623,8.12-4.142c3.874-0.678,8.067-0.695,11.917,0.059c2.739,0.536,6.157,2.26,7.371,4.489
			C236.703,249.836,234.955,253.201,234.16,257.279z"/>
		<path fill-rule="evenodd" clip-rule="evenodd" d="M223.623,299.92c1.686,0,3.473,0.027,5.26-0.005
			c9.471-0.171,14.715-5.946,14.143-15.253c-0.258-4.22-0.055-8.468-0.057-12.704c-0.004-4.224-0.001-8.448-0.001-12.646
			c4.513-0.281,8.706-0.544,13.393-0.837c0,7.4,0.007,15.02-0.002,22.638c-0.01,7.981,0.3,15.981-0.138,23.939
			c-0.564,10.24-9.047,16.604-19.398,15.121C227.506,318.838,221.742,310.289,223.623,299.92z"/>
		<path fill-rule="evenodd" clip-rule="evenodd" d="M223.18,236.489c0-8.38,0-16.15,0-24.229c10.938,0,21.655,0,33.201,0
			c0,4.63,0.104,9.208-0.093,13.773c-0.036,0.843-1.13,1.93-2.006,2.4c-5.816,3.122-11.556,6.483-17.651,8.943
			c-2.277,0.918-5.443-0.408-8.21-0.643C226.674,236.586,224.916,236.566,223.18,236.489z"/>
		<path fill-rule="evenodd" clip-rule="evenodd" d="M297.18,270.88c-0.002-4.494,0.088-8.991-0.027-13.482
			c-0.107-4.195,1.168-7.253,5.803-7.771c2.949-0.33,7.929,4.166,7.979,7.567c0.15,9.984,0.185,19.976-0.029,29.958
			c-0.09,4.191-3.292,5.566-6.95,5.52c-3.71-0.047-6.596-1.644-6.73-5.813C297.051,281.538,297.182,276.207,297.18,270.88z"/>
	</g>
	
		<rect x="63.392" y="341.943" display="inline" fill-rule="evenodd" clip-rule="evenodd" fill="none" width="360" height="129.775"/>
	<text transform="matrix(1 0 0 1 71.8828 438.2222)" display="inline" font-family="'Muli'" font-size="50">mirror wanted</text>
</g>
<g id="Layer_45" display="none">
</g>
<g id="Layer_40" display="none">
	<path display="inline" fill-rule="evenodd" clip-rule="evenodd" d="M200.438,177.067c-3.492,3.385-7.033,6.722-10.466,10.166
		c-6.146,6.165-12.204,12.417-18.341,18.591c-6.408,6.447-16.288,6.11-20.595-0.652c-3.041-4.775-1.678-11.418,3.551-16.672
		c7.729-7.767,15.528-15.464,23.28-23.208c8.176-8.168,16.399-16.293,24.474-24.562c4.787-4.902,10.415-7.192,17.273-7.117
		c13.976,0.153,27.956,0.216,41.931,0.01c7.379-0.108,13.263,2.394,18.438,7.636c15.605,15.81,31.392,31.443,47.142,47.11
		c5.351,5.322,6.793,12.146,3.437,16.982c-4.862,7.005-13.978,7.077-20.469,0.366c-8.343-8.626-16.803-17.14-25.316-25.597
		c-1.165-1.157-2.936-1.704-4.426-2.533c-0.283,1.658-0.78,3.312-0.808,4.975c-0.101,5.989,0.093,11.986-0.176,17.965
		c-0.047,1.053-1.627,2.331-2.794,2.948c-0.958,0.507-2.354,0.228-3.555,0.228c-21.343,0.009-42.688,0.024-64.031-0.003
		c-6.655-0.008-6.692-0.063-6.742-6.914c-0.038-5.255,0.062-10.512,0.032-15.768c-0.005-1.112-0.305-2.222-0.47-3.332
		C201.352,177.479,200.895,177.273,200.438,177.067z"/>
	
		<path display="inline" fill-rule="evenodd" clip-rule="evenodd" fill="#FFFFFF" stroke="#000000" stroke-width="3" stroke-miterlimit="10" d="
		M247.089,51.177c2.816-2.849,5.408-1.848,7.821,0.543c5.876,5.821,11.677,11.719,17.59,17.501c1.254,1.227,2.859,2.094,4.303,3.127
		c0.408-0.39,0.815-0.781,1.224-1.17c-0.874-1.32-1.572-2.81-2.654-3.93c-5.002-5.184-10.122-10.254-15.175-15.39
		c-2.288-2.325-3.966-5.254-1.239-7.863c2.631-2.514,5.417-1.022,7.794,1.428c5.655,5.826,11.433,11.535,17.221,17.231
		c1.077,1.06,2.435,1.835,3.663,2.742c0.369-0.314,0.737-0.627,1.105-0.941c-0.723-1.223-1.259-2.621-2.205-3.634
		c-2.771-2.965-5.725-5.759-8.566-8.658c-1.048-1.07-2.154-2.144-2.937-3.4c-1.441-2.317-3.08-4.905-0.107-7.183
		c2.643-2.025,5.056-0.976,7.188,1.202c2.841,2.9,5.738,5.745,8.61,8.616c6.273,6.272,12.574,12.521,18.815,18.827
		c10.659,10.769,11.603,19.272,2.618,31.467c-5.925,8.043-16.168,15.732-32.053,10.978c-1.556-0.466-3.204-0.624-4.809-0.924
		c-5.368-1.219-10.782-2.27-16.08-3.745c-1.999-0.556-4.304-1.707-5.385-3.314c-0.789-1.172-0.467-4.268,0.553-5.196
		c1.414-1.286,3.95-1.834,5.997-1.812c3.181,0.035,6.353,0.817,9.529,1.283c0.147-0.496,0.296-0.994,0.445-1.491
		c-2.792-2.706-5.614-5.381-8.369-8.125c-6.07-6.042-12.296-11.947-18.006-18.313c-1.245-1.388-1.579-5.102-0.6-6.643
		c1.703-2.679,4.492-1.321,6.585,0.491c1.019,0.882,1.938,1.885,2.874,2.859c4.658,4.847,9.306,9.704,13.789,14.38
		c3.873-1.972,2.683-3.493,0.961-5.194c-6.089-6.021-12.065-12.157-18.208-18.122C247.109,56.595,245.999,54.278,247.089,51.177z"/>
	<path display="inline" fill-rule="evenodd" clip-rule="evenodd" d="M247.089,51.177c-1.09,3.102,0.021,5.418,2.293,7.626
		c6.143,5.965,12.119,12.101,18.208,18.122c1.722,1.701,2.912,3.223-0.961,5.194c-4.483-4.676-9.131-9.533-13.789-14.38
		c-0.937-0.974-1.855-1.977-2.874-2.859c-2.093-1.812-4.882-3.17-6.585-0.491c-0.979,1.541-0.646,5.254,0.6,6.643
		c5.71,6.367,11.936,12.272,18.006,18.313c2.755,2.743,5.577,5.418,8.369,8.125c-0.149,0.497-0.298,0.995-0.445,1.491
		c-3.177-0.465-6.349-1.248-9.529-1.283c-2.047-0.023-4.583,0.525-5.997,1.812c-1.02,0.928-1.342,4.024-0.553,5.196
		c1.081,1.608,3.386,2.758,5.385,3.314c5.298,1.475,10.712,2.525,16.08,3.745c-3.183-0.41-5.464,0.625-7.755,3.151
		c-6.979,7.692-16.206,12.004-26.306,11.849c-15.064-0.231-28.268-8.286-34.307-23.379c-5.937-14.835-1.148-32.091,11.393-41.659
		c6.678-5.094,14.246-8.027,22.861-8.124C243.16,53.562,245.12,52.019,247.089,51.177z"/>
	<path display="inline" fill-rule="evenodd" clip-rule="evenodd" d="M230.489,248.132c-5.547,5.632-10.446,10.608-15.349,15.582
		c-0.104,0.107-0.248,0.172-0.36,0.272c-6.529,5.848-6.465,6.009-0.248,12.095c5.688,5.566,11.255,11.258,16.776,16.99
		c4.283,4.446,5.206,10.015,2.695,14.876c-2.454,4.754-7.117,7.1-13.348,5.861c-2.454-0.488-5.026-2.107-6.815-3.928
		c-12.111-12.316-24.586-24.344-35.821-37.429c-8.409-9.793-9.326-19.257,0.876-29.483c6.789-6.805,13.667-13.525,20.348-20.435
		c1.766-1.826,2.892-2.08,4.759-0.235C212.614,230.805,221.324,239.212,230.489,248.132z"/>
	<path display="inline" fill-rule="evenodd" clip-rule="evenodd" d="M258.064,315c-8.145,0.131-15.892-10.935-10.738-17.945
		c2.033-2.765,4.062-5.579,6.435-8.039c5.219-5.404,10.537-10.726,16.056-15.819c2.417-2.23,2.291-3.782,0.105-5.916
		c-5.484-5.354-10.815-10.865-16.309-16.21c-1.668-1.623-2.357-2.609-0.247-4.661c7.852-7.634,15.493-15.485,23.141-23.325
		c2.147-2.201,3.593-2.752,6.134-0.055c6.58,6.983,13.62,13.53,20.427,20.301c7.553,7.514,8.76,19.779,1.559,27.77
		c-12.256,13.602-25.145,26.645-38.043,39.648C264.467,312.883,260.939,313.619,258.064,315z"/>
	
		<rect x="53.392" y="341.943" display="inline" fill-rule="evenodd" clip-rule="evenodd" fill="none" width="374" height="139.742"/>
	<text transform="matrix(1 0 0 1 54.5029 438.2222)" display="inline" font-family="'Muli'" font-size="50">touch crowning</text>
</g>
<g id="Layer_41" display="none">
	<g display="inline">
		<path fill-rule="evenodd" clip-rule="evenodd" d="M279.521,171.198c0.534,2.975,0.692,6.08,1.667,8.903
			c5.337,15.454,10.878,30.837,16.33,46.252c0.188,0.526,0.172,1.125,0.371,2.553c-2.688,0-5.207-0.001-7.725,0
			c-6.374,0.001-12.758,0.216-19.117-0.073c-3.941-0.179-5.207,1.022-5.173,5.075c0.184,22.45,0.119,44.902,0.047,67.354
			c-0.007,2.265-0.425,4.585-1.021,6.78c-1.163,4.274-6.645,8.024-10.421,7.372c-4.979-0.859-8.99-5.249-8.999-10.128
			c-0.04-23.611-0.018-47.222-0.021-70.834c-0.002-5.212-2.312-7.07-7.266-5.338c-1.099,0.384-2.199,2.543-2.231,3.911
			c-0.203,8.542-0.103,17.09-0.103,25.637c0,14.919,0.026,29.839-0.009,44.759c-0.017,6.619-2.146,9.449-8.04,11.834
			c-2.93,1.186-10.944-3.025-11.474-7.116c-0.295-2.287-0.577-4.598-0.582-6.897c-0.037-22.302-0.087-44.604,0.058-66.905
			c0.026-4.024-1.007-5.687-5.377-5.527c-8.788,0.322-17.597,0.096-27.302,0.096c2.032-6.041,3.763-11.422,5.651-16.747
			c4.27-12.039,8.669-24.031,12.85-36.099c0.428-1.237-0.269-2.865-0.443-4.311c4.092,1.205,7.201-0.187,10.013-3.278
			c3.439-3.783,7.202-7.27,10.825-10.886c0.433,0.171,0.865,0.342,1.299,0.514c0.193,3.595,0.387,7.189,0.586,10.903
			c10.991,0,21.624,0,32.942,0c0-3.841,0-7.423,0-11.005c0.37-0.143,0.739-0.286,1.108-0.429c3.862,3.819,7.829,7.538,11.554,11.488
			C272.453,172.167,275.579,173.314,279.521,171.198z M255.463,198.619c-4.19,4.259-7.358,7.381-10.407,10.614
			c-2.182,2.313-3.337,5.127-0.729,7.656c2.483,2.408,5.422,1.688,7.694-0.629c5.157-5.258,10.281-10.559,15.206-16.035
			c2.977-3.31,3.475-8.104,0.951-11.16c-3.258-3.943-7.045-7.448-10.415-10.947c-4.415,4.25-8.233,7.925-12.28,11.819
			c1.607,1.698,2.974,3.375,4.581,4.775C251.677,196.115,253.53,197.241,255.463,198.619z M222.001,177.84
			c-2.737,2.993-5.412,6.034-8.215,8.954c-4.794,4.994-5.025,9.183-0.289,14.411c4.471,4.935,9.199,9.635,13.794,14.456
			c2.349,2.463,5.07,3.59,8.069,1.484c2.466-1.733,1.976-5.115-0.994-8.309c-2.927-3.148-5.941-6.214-9.474-9.896
			c3.49-2.911,6.699-5.587,9.885-8.243C230.216,186.106,226.399,182.265,222.001,177.84z"/>
		<path fill-rule="evenodd" clip-rule="evenodd" d="M208.759,156.937c3.033-9.124,5.84-18.331,9.215-27.326
			c1.194-3.183,0.173-5.131-2.247-5.764c-1.078-0.281-3.689,2.009-4.265,3.613c-6.248,17.447-12.229,34.989-18.286,52.505
			c-1.439,4.161-2.884,8.211-8.202,8.944c-7.55,1.04-12.983-5.286-10.453-12.502c7.223-20.591,14.455-41.178,21.847-61.708
			c1.891-5.254,3.961-10.531,6.704-15.37c3.422-6.038,9.022-8.964,16.129-8.919c12.756,0.081,25.532,0.498,38.259-0.097
			c13.677-0.639,21.97,8.295,25.466,18.134c8.026,22.59,15.974,45.208,23.958,67.812c1.732,4.906-0.586,10.069-5.454,12.103
			c-4.628,1.934-10,0.038-11.854-4.826c-3.578-9.379-6.746-18.916-10.059-28.396c-3.22-9.217-6.258-18.502-9.742-27.619
			c-0.652-1.708-3.399-4.131-4.536-3.826c-2.464,0.661-3.076,2.917-1.935,5.892c3.242,8.45,5.895,17.124,9.016,25.622
			c0.716,1.952,2.337,3.586,3.612,5.315c1.176,1.596,2.447,3.124,3.677,4.681c-7.44-7.463-14.74-15.076-22.42-22.283
			c-1.899-1.781-4.981-2.97-7.614-3.166c-6.178-0.459-12.445-0.519-18.613,0.007c-2.878,0.245-6.101,1.651-8.306,3.538
			C217.735,147.511,213.357,152.353,208.759,156.937z M239.82,104.095c-8.595,0.094-15.324,7-15.23,15.627
			c0.095,8.592,7.103,15.578,15.531,15.482c8.6-0.098,15.488-7.043,15.431-15.558C255.492,110.675,248.736,103.997,239.82,104.095z"
			/>
		<path fill-rule="evenodd" clip-rule="evenodd" d="M241.375,84.391c-11.312,0.736-21.604-9.149-21.685-21.485
			c-0.088-13.654,11.189-22.316,22.073-22.365c12.302-0.057,21.673,9.892,21.94,22.482C263.918,73.209,254.7,85.362,241.375,84.391z
			"/>
	</g>
	
		<rect x="49.392" y="341.943" display="inline" fill-rule="evenodd" clip-rule="evenodd" fill="none" width="374" height="139.742"/>
	<text transform="matrix(1 0 0 1 108.5352 378.2222)" display="inline"><tspan x="0" y="0" font-family="'Muli'" font-size="50">immediate </tspan><tspan x="-5.921" y="60" font-family="'Muli'" font-size="50">skin to skin</tspan></text>
</g>
<g id="Layer_42" display="none">
	<g display="inline">
		<path fill-rule="evenodd" clip-rule="evenodd" d="M288.477,40.634c-2.004,7.944-3.692,14.637-5.381,21.33
			c-7.438,29.467-14.737,58.972-22.37,88.389c-4.078,15.709-12.135,29.402-21.822,42.398c-5.135,6.887-8.97,14.865-12.587,22.722
			c-2.659,5.771-0.362,8.84,5.996,9.957c16.975,2.982,27.471,14.608,28.673,31.759c0.855,12.184-0.312,24.042-5.514,35.29
			c-7.082,15.317-21.215,22.141-35.895,19.67c-16.777-2.823-26.472-14.067-28.439-31.119c-2.114-18.33,1.616-35.977,5.814-53.551
			c10.08-42.184,20.262-84.345,30.61-126.463C235.365,69.258,257.298,51.396,288.477,40.634z M244.766,264.553
			c-0.383-0.133-0.766-0.265-1.149-0.397c-0.225-2.515-0.22-5.076-0.715-7.536c-1.681-8.34-6.453-12.967-13.672-13.531
			c-8.746-0.683-13.932,2.533-17.053,11.138c-3.348,9.221-4.73,18.715-2.37,28.439c1.567,6.451,6.046,10.456,12.474,11.415
			c7.231,1.08,13.17-1.107,15.855-7.548C241.067,279.507,242.615,271.904,244.766,264.553z M218.331,189.476
			c-4.479-0.358-8.434,2.915-8.855,7.336c-0.437,4.55,2.74,8.443,7.232,8.869c4.964,0.469,8.668-2.608,9.013-7.491
			C226.046,193.577,222.877,189.839,218.331,189.476z"/>
		<path fill-rule="evenodd" clip-rule="evenodd" d="M378.604,145.748c-14.73,30.405-36.407,50.057-70.8,53.278
			c-18.428,1.727-36.756,4.508-55.13,6.811c-0.912,0.114-1.829,0.2-3.866,0.419c1.595-2.813,2.812-4.869,3.943-6.97
			c6.437-11.958,12.798-23.956,19.347-35.851c0.779-1.418,2.422-3.09,3.864-3.307c32.545-4.906,65.117-9.633,97.688-14.355
			C375.016,145.575,376.435,145.748,378.604,145.748z"/>
		<path fill-rule="evenodd" clip-rule="evenodd" d="M194.589,186.916c-1.984,8.305-3.772,16.152-5.822,23.931
			c-0.262,0.989-1.805,2.164-2.896,2.333c-17.757,2.75-35.547,4.271-53.446,1.132c-17.083-2.996-26.878-11.613-30.131-26.747
			c-3.747-17.431,4.442-32.908,21.536-38.851c15.127-5.258,30.586-5.18,45.507,1.104c12.839,5.408,19.164,15.615,19.35,29.472
			C188.74,183.4,189.427,186.586,194.589,186.916z M145.382,162.515c-5.025,0.912-10.093,1.398-14.89,2.803
			c-7.505,2.199-10.898,7.121-11.066,14.724c-0.157,7.103,3.609,12.786,10.86,14.973c10.071,3.039,20.344,3.096,30.383-0.223
			c6.959-2.302,10.375-7.602,10.356-14.816c-0.019-7.072-3.61-12.433-10.677-14.571
			C155.562,163.956,150.485,163.464,145.382,162.515z"/>
	</g>
	
		<rect x="45.392" y="341.943" display="inline" fill-rule="evenodd" clip-rule="evenodd" fill="none" width="386" height="139.742"/>
	<text transform="matrix(1 0 0 1 116.1748 378.2222)" display="inline"><tspan x="0" y="0" font-family="'Muli'" font-size="50">partner to </tspan><tspan x="23.511" y="60" font-family="'Muli'" font-size="50">cut cord</tspan></text>
</g>
<g id="Layer_31" display="none">
</g>
<g id="Layer_32" display="none">
</g>
<g id="Layer_33" display="none">
</g>
<g id="Layer_30" display="none">
</g>
<g id="Layer_29" display="none">
</g>
<g id="Layer_27" display="none">
	<path display="inline" fill-rule="evenodd" clip-rule="evenodd" d="M169.185,225.584c-0.007-19.813,0.128-39.627-0.061-59.438
		c-0.1-10.551,2.383-19.58,12.006-25.483c0.818-0.502,1.237-2.192,1.266-3.345c0.092-3.749-0.213-7.508-0.127-11.258
		c0.138-6.045,2.794-10.644,7.859-14.138c1.592-1.097,3.02-3.471,3.213-5.393c1.236-12.337,5.737-23.02,14.445-32
		c1.669-1.72,2.788-4.495,3.101-6.92c1.54-11.961,7.179-20.583,18.485-25.583c15.613-6.902,35.749,4.49,38.186,24.156
		c0.292,2.365,1.67,5.082,3.413,6.7c9.713,9.017,15.329,19.938,16.213,33.162c0.197,2.939,0.958,4.877,3.637,6.628
		c8.852,5.788,7.628,15.004,6.864,23.62c-0.295,3.323,0.144,5.152,2.743,7.281c5.415,4.436,8.13,10.5,8.138,17.526
		c0.052,43.041,0.088,86.083-0.006,129.123c-0.028,13.349-10.072,23.657-23.783,23.783c-30.57,0.278-61.147,0.311-91.717-0.027
		c-14.354-0.158-23.723-10.478-23.831-25.369C169.072,267.602,169.188,246.592,169.185,225.584z M183.033,189.342
		c0,9.291,0,17.748,0,26.753c6.268,0,12.215-0.011,18.162,0.003c7.628,0.018,11.077,2.211,10.935,6.922
		c-0.137,4.561-3.505,6.646-10.747,6.653c-4.952,0.005-9.913-0.149-14.852,0.115c-1.295,0.07-3.59,1.401-3.616,2.212
		c-0.27,8.297-0.164,16.607-0.164,25.464c7.076,0,13.523-0.022,19.971,0.006c6.31,0.028,9.504,2.385,9.403,6.871
		c-0.099,4.41-3.3,6.653-9.624,6.677c-6.428,0.024-12.855,0.005-19.802,0.005c0,5.584,0,10.502,0,15.418
		c-0.003,10.846,3.252,14.172,13.971,14.178c28.176,0.014,56.352,0.01,84.527,0c1.534,0,3.088,0.036,4.6-0.177
		c5.733-0.809,9.212-4.596,9.218-10.393c0.05-42.86,0.058-85.721,0.007-128.581c-0.007-6.24-4.075-10.321-10.273-10.334
		c-30.565-0.063-61.131-0.045-91.695-0.023c-4.812,0.003-8.82,2.317-9.511,6.927c-0.858,5.718-0.206,11.664-0.206,17.842
		c7.16,0,13.979-0.109,20.791,0.037c4.813,0.103,8.044,3.076,7.976,6.915c-0.069,3.891-3.212,6.447-8.22,6.494
		C197.08,189.391,190.276,189.342,183.033,189.342z M273.755,108.604c-0.284-12.108-5.208-21.265-14.658-27.649
		c-4.036-2.727-6.271-5.03-5.287-10.408c1.175-6.418-1.827-11.729-7.541-14.988c-5.188-2.959-10.572-2.663-15.404,0.866
		c-5.295,3.869-7.604,9.424-6.04,15.732c1.05,4.236-0.052,6.329-3.464,8.748c-9.316,6.603-14.092,15.821-14.346,27.699
		C229.24,108.604,251.153,108.604,273.755,108.604z M240.798,123.446c-13.295,0-26.592,0.124-39.885-0.074
		c-4.062-0.061-5.765,1.278-5.125,5.323c0.027,0.166,0.007,0.34,0.007,0.511c-0.022,7.873-0.022,7.893,7.63,7.908
		c10.227,0.022,20.455,0.012,30.682,0.011c14.66-0.001,29.324-0.219,43.976,0.102c5.278,0.116,7.225-1.67,6.43-6.739
		c-0.078-0.499-0.071-1.03,0.002-1.531c0.625-4.197-1.033-5.677-5.364-5.595C266.37,123.605,253.583,123.449,240.798,123.446z"/>
	
		<rect x="39.164" y="341.943" display="inline" fill-rule="evenodd" clip-rule="evenodd" fill="none" width="403.228" height="139.742"/>
	<text transform="matrix(1 0 0 1 49.7139 438.2222)" display="inline" font-family="'Muli'" font-size="50">formula feeding</text>
</g>
<g id="Layer_28" display="none">
	<path display="inline" fill-rule="evenodd" clip-rule="evenodd" d="M275.608,251.394c-4.461-0.223-8.587-0.138-12.628-0.685
		c-10.987-1.488-19.714-7.142-26.188-15.909c-4.432-6.002-8.119-12.56-12.036-18.933c-2.893-4.707-6.132-8.732-12.323-8.884
		c-5.624-0.138-8.848,2.073-10.021,7.605c-1.675,7.891,0.514,15.195,4.073,22.135c5.124,9.99,4.216,12.509-6.854,14.973
		c-7.569,1.686-15.331,2.505-23.007,3.711c-0.229,0.456-0.46,0.911-0.689,1.367c2.42,1.655,4.663,3.695,7.29,4.902
		c13.297,6.108,27.443,7.702,41.913,7.596c4.483-0.033,9.053,0.076,13.44,0.892c8.055,1.496,14.543,5.624,16.241,14.176
		c1.579,7.957-2.017,14.34-8.417,18.955c-10.453,7.535-22.494,8.816-34.843,7.824c-17.565-1.412-33.898-6.961-48.833-16.254
		c-20.503-12.758-29.601-33.803-24.755-57.497c1.459-7.133,3.329-14.391,6.39-20.948c7.732-16.573,15.752-33.058,24.619-49.044
		c6.299-11.355,15.733-19.865,29.088-22.637c3.232-0.671,6.605-0.914,9.914-0.926c22.33-0.078,44.662,0.153,66.988-0.11
		c14.098-0.166,26.033,4.692,33.431,16.454c10.25,16.298,20.128,33.016,28.136,50.483c7.634,16.653,4.467,33.366-6.906,47.953
		c-7.506,9.626-15.953,18.386-26.771,24.433c-8.537,4.771-17.674,6.924-27.42,5.285c-13.633-2.291-18.684-15.6-9.959-26.384
		C268.452,258.254,272.037,255.074,275.608,251.394z M302.261,214.82c0.111-16.825-13.631-30.622-30.449-30.566
		c-16.461,0.054-30.228,13.944-30.146,30.416c0.082,16.638,13.637,30.198,30.24,30.253
		C288.538,244.979,302.148,231.48,302.261,214.82z"/>
	<path display="inline" fill-rule="evenodd" clip-rule="evenodd" d="M282.573,87.808c0.032,24.521-19.608,44.069-44.166,43.956
		c-24.684-0.113-43.953-19.495-43.951-44.205c0.004-24.568,19.486-43.899,44.209-43.862
		C263.407,43.733,282.542,62.956,282.573,87.808z"/>
	
		<rect x="49.392" y="341.943" display="inline" fill-rule="evenodd" clip-rule="evenodd" fill="none" width="382" height="139.742"/>
	<text transform="matrix(1 0 0 1 73.7529 378.2222)" display="inline"><tspan x="0" y="0" font-family="'Muli'" font-size="50">breastfeeding </tspan><tspan x="102.283" y="60" font-family="'Muli'" font-size="50">ASAP</tspan></text>
</g>
<g id="Layer_26" display="none">
	<g display="inline">
		<path fill-rule="evenodd" clip-rule="evenodd" d="M342.469,190.833c8.051-3.18,14.407-0.369,15.616,6.661
			c2.426,14.091,4.377,28.263,6.754,42.362c0.814,4.823-0.812,6.966-5.626,7.483c-14.982,1.614-13.762,5.164-16.306-12.062
			c-0.621-4.205-1.393-8.388-2.949-12.539c0,4.864,0,9.729,0,14.594c0,20.425,0.051,40.85-0.024,61.273
			c-0.028,7.548-3.962,13.234-10.288,15.441c-6.361,2.219-13.595,0.557-17.194-5.113c-2.068-3.259-3.285-7.622-3.331-11.508
			c-0.295-24.722-0.158-49.447-0.163-74.172c0-1.929,0-3.857,0-5.861c-1.238-0.26-1.906-0.5-2.583-0.527
			c-7.811-0.299-7.826-0.29-7.83,7.724c-0.009,24.725,0.068,49.449-0.041,74.173c-0.051,11.55-9.836,18.849-20.264,15.395
			c-6.662-2.209-10.479-8.072-10.48-16.395c-0.009-36.907,0.023-73.815,0.04-110.723c0.004-6.798,0.001-13.598,0.001-20.396
			c-0.434-0.053-0.866-0.104-1.299-0.157c-0.892,7.279-1.915,14.544-2.623,21.842c-0.379,3.911-0.132,7.878-0.312,11.814
			c-0.324,7.106-5.477,12.222-11.898,11.945c-6.371-0.275-10.892-5.283-10.938-12.19c-0.166-24.285,3.062-47.903,15.333-69.348
			c3.819-6.675,9.113-12.51,14.487-19.746c2.416,6.378,4.028,11.076,5.956,15.642c12.793,30.299,31.479,55.686,60.632,72.266
			c2.174,1.237,4.386,2.92,6.725,3.2c2.03,0.245,4.264-1.205,6.407-1.907c-0.84-2.079-1.338-4.414-2.635-6.151
			C346.674,192.567,344.672,192.058,342.469,190.833z"/>
		<path fill-rule="evenodd" clip-rule="evenodd" d="M164.906,217.054c-3.677,0-6.483,0-9.932,0c-0.161,1.95-0.445,3.817-0.45,5.686
			c-0.042,24.902-0.289,49.807,0.063,74.704c0.137,9.686-5.478,17.194-15.445,17.591c-9.043,0.363-15.449-7.149-15.452-17.569
			c-0.012-41.742,0.027-83.485,0.048-125.227c0.001-1.875,0.001-3.75,0.001-5.625c-0.566-0.035-1.132-0.068-1.697-0.102
			c-0.829,10.24-1.614,20.484-2.516,30.717c-0.247,2.815-0.381,5.781-1.383,8.358c-1.757,4.515-7.344,7.186-11.922,6.31
			c-5.413-1.036-9.301-4.907-9.438-10.166c-0.635-24.48,2.595-48.286,14.56-70.061c3.896-7.09,9.431-13.279,14.991-20.952
			c2.872,7.327,4.869,13.008,7.29,18.503c13.111,29.765,32.018,54.544,61.15,70.411c1.728,0.941,3.508,2.388,5.299,2.442
			c2,0.062,4.043-1.197,6.064-1.882c-0.756-2.114-1.119-4.518-2.394-6.253c-1.008-1.375-3.131-1.932-5.032-3.006
			c7.151-3.454,14.033-0.665,15.254,6.311c2.528,14.436,4.521,28.963,6.874,43.43c0.669,4.107-0.852,6.12-4.88,6.507
			c-1.425,0.138-2.838,0.401-4.26,0.57c-10.705,1.275-10.729,1.276-12.519-9.536c-0.863-5.22-1.614-10.458-3.292-15.584
			c0,25.066,0.022,50.132-0.012,75.199c-0.012,8.438-4.166,14.511-11.089,16.479c-10.572,3.003-19.801-4.354-19.854-16.134
			c-0.109-24.542-0.031-49.086-0.03-73.63C164.906,222.236,164.906,219.926,164.906,217.054z"/>
		<path fill-rule="evenodd" clip-rule="evenodd" d="M340.345,189.956c-32.157-20.074-49.784-48.643-61.019-83.198
			c3.401-0.607,6.417-1.553,9.45-1.613c10.023-0.201,20.053-0.086,30.081-0.082c6.389,0.003,11.489,2.626,16.433,6.708
			c26.956,22.259,41.771,51.149,47.464,85.193c1.162,6.948-2.682,13.135-8.975,14.25c-6.921,1.227-12.347-2.864-13.612-10.261
			c-3.373-19.73-10.361-37.522-19.822-49.656C340.345,164.227,340.345,176.364,340.345,189.956z"/>
		<path fill-rule="evenodd" clip-rule="evenodd" d="M196.008,152.276c0,6.049,0,12.098,0,18.146c0,6.031,0,12.062,0,19.335
			c-31.914-19.807-49.513-48.499-60.82-83.166c3.702-0.552,6.938-1.39,10.189-1.452c9.664-0.186,19.334-0.032,29.002-0.08
			c6.382-0.031,11.565,2.347,16.531,6.432c27.138,22.333,42.122,51.328,47.79,85.591c1.135,6.859-2.888,13.153-9.116,14.144
			c-7.077,1.125-12.175-2.777-13.489-10.38c-2.86-16.54-8.041-32.212-17.271-46.376c-0.562-0.865-1.19-1.688-1.789-2.53
			C196.691,152.052,196.35,152.165,196.008,152.276z"/>
		<path fill-rule="evenodd" clip-rule="evenodd" d="M303.794,102.9c-17.236-0.026-30.918-13.713-30.983-30.99
			c-0.064-17.28,14.149-31.515,31.346-31.392c17.316,0.123,31.567,14.419,31.395,31.492
			C335.373,89.436,321.502,102.928,303.794,102.9z"/>
		<path fill-rule="evenodd" clip-rule="evenodd" d="M159.919,102.897c-17.515-0.018-31.32-13.898-31.165-31.331
			c0.151-17.163,13.991-30.951,31.15-31.036c17.211-0.085,31.609,14.178,31.583,31.286
			C191.461,89.191,177.521,102.916,159.919,102.897z"/>
	</g>
	
		<rect x="41.392" y="341.943" display="inline" fill-rule="evenodd" clip-rule="evenodd" fill="none" width="406" height="139.742"/>
	<text transform="matrix(1 0 0 1 98.0537 438.2222)" display="inline" font-family="'Muli'" font-size="50">students OK</text>
</g>
<g id="Layer_23" display="none">
	<path display="inline" fill-rule="evenodd" clip-rule="evenodd" d="M241.274,37.129c42.17-0.316,79.36,28.353,90.056,69.688
		c7.686,29.708,1.687,57.283-17.411,81.579c-3.91,4.976-8.12,10.097-13.235,13.646c-5.663,3.932-7.99,8.74-8.819,15.127
		c-1.133,8.718-3.004,17.35-3.892,26.084c-0.517,5.083,0.276,10.297,0.47,15.453c0.245,6.513,0.375,13.03,0.742,19.535
		c0.416,7.388-3.541,13.468-10.921,17.556c-2.124,1.176-3.377,3.855-5.172,5.707c-3.82,3.938-7.068,9.163-11.73,11.421
		c-15.979,7.741-31.893,6.567-46.849-3.355c-1.67-1.107-3.862-2.748-4.133-4.412c-1.034-6.387-5.852-8.804-10.493-11.937
		c-6.146-4.147-8.063-10.229-6.974-17.719c0.819-5.634,0.526-11.443,0.566-17.174c0.111-15.647-1.522-31.135-4.901-46.4
		c-0.538-2.434-1.959-5.307-3.892-6.697c-14.656-10.546-24.417-24.737-30.758-41.293c-11.388-29.732-8.436-58.456,9.056-84.866
		C181.363,51.323,208.069,37.79,241.274,37.129z M261.336,141.688c1.38,1.274,2.759,2.55,4.141,3.825
		c1.156-1.773,2.335-3.532,3.451-5.331c0.29-0.464,0.225-1.269,0.598-1.541c1.494-1.095,3.097-2.041,4.661-3.042
		c0.639,1.897,2.251,4.112,1.752,5.635c-2.501,7.628-5.637,15.047-8.396,22.595c-3.078,8.421-7.461,16.703-8.644,25.404
		c-1.916,14.092-1.715,28.475-2.311,42.739c-0.06,1.404,0.079,3.303,0.938,4.172c3.156,3.194,14.261-0.151,14.969-4.537
		c1.436-8.883,2.548-17.819,3.768-26.737c0.559-4.078,1.168-7.514,5.466-10.195c38.825-24.22,47.132-78.271,17.708-113.269
		c-30.857-36.704-88.274-36.011-117.902,1.388c-28.021,35.369-20.085,87.108,17.591,111.33c4.17,2.682,5.874,5.809,6.377,10.354
		c0.807,7.269,1.762,14.525,2.835,21.76c1.545,10.412,1.62,10.226,11.966,10.586c4.019,0.139,5.345-1.084,5.103-5.08
		c-0.622-10.313-0.893-20.647-1.417-30.968c-0.249-4.871,0.216-10.065-1.326-14.532c-5.119-14.833-10.846-29.464-16.715-44.021
		c-1.264-3.13-1.069-5.454,1.697-6.385c1.089-0.366,3.436,2.15,4.802,3.708c1.405,1.602,2.315,3.638,3.442,5.484
		c1.7-1.088,3.401-2.175,4.678-2.993c1.882,1.532,3.669,4.096,5.378,4.047c1.542-0.045,2.998-2.954,4.491-4.599
		c5.675,6.166,5.675,6.166,10.429,0.268c4.849,5.756,4.849,5.756,10.371,0.072C255.991,147.707,255.991,147.707,261.336,141.688z
		 M248.69,236.354c0.229-1.348,0.479-2.242,0.518-3.146c0.573-13.134,0.985-26.277,1.752-39.401
		c0.226-3.852,1.028-7.785,2.277-11.438c3.083-9.025,6.654-17.884,9.836-26.878c0.576-1.629,0.226-3.586,0.303-5.391
		c-1.716,0.062-3.431,0.164-5.147,0.175c-1.226,0.008-2.451-0.139-3.676-0.161c-5.373-0.099-10.746-0.194-16.118-0.259
		c-5.3-0.064-10.644,0.302-15.888-0.261c-3.867-0.415-5.521,0.55-4.456,4.378c0.848,3.041,2.354,5.892,3.347,8.899
		c3.731,11.293,9.773,21.801,9.738,34.335c-0.034,12.911,1.098,25.823,1.737,39.146C238.254,236.354,243.391,236.354,248.69,236.354
		z M272.39,260.185c-2.953,0.449-4.268,0.575-5.548,0.855c-8.705,1.912-17.404,3.858-26.105,5.793
		c-9.655,2.147-19.32,4.247-28.958,6.465c-4.126,0.95-8.164,2.809-6.369,7.89c1.529,4.327,5.428,3.984,9.518,2.897
		c7.562-2.012,15.293-3.382,22.931-5.121c11.471-2.613,22.979-5.099,34.325-8.179c1.941-0.528,4.402-3.791,4.342-5.719
		C276.465,263.179,273.493,261.382,272.39,260.185z M211.084,271.839c0.304-0.324,0.608-0.647,0.912-0.971
		c1.114-0.128,2.251-0.155,3.341-0.398c8.707-1.934,17.407-3.899,26.106-5.874c10.148-2.304,20.305-4.582,30.435-6.967
		c3.551-0.837,5.868-3.022,4.698-6.893c-1.115-3.688-4.103-4.553-7.69-3.719c-4.732,1.099-9.477,2.153-14.211,3.246
		c-14.706,3.393-29.392,6.882-44.131,10.129c-3.666,0.808-6.449,2.556-5.3,6.238C205.912,268.766,209.056,270.128,211.084,271.839z
		 M241.04,306.965c6.094-2.328,12.022-4.298,17.627-6.953c1.331-0.63,1.575-3.556,2.32-5.425c-2.143-0.243-4.761-1.403-6.35-0.579
		c-9.203,4.769-18.074,5.085-27.279-0.018c-1.593-0.884-4.26,0.172-6.431,0.331c0.78,2.025,1.017,5.191,2.44,5.872
		C228.801,302.792,234.614,304.59,241.04,306.965z M247.057,248.735c-0.084-0.631-0.168-1.263-0.252-1.895
		c-12.436,0-24.878-0.215-37.295,0.277c-1.519,0.061-3.979,3.866-4.069,6.017c-0.137,3.281,2.549,4.573,6.003,3.813
		c8.761-1.929,17.564-3.66,26.323-5.594C240.903,250.662,243.962,249.618,247.057,248.735z M233.967,282.781
		c0.049,0.591,0.1,1.183,0.149,1.774c2.538,0.165,5.076,0.468,7.613,0.472c9.906,0.021,19.832,0.259,29.701-0.371
		c1.891-0.12,4.714-3.631,5.047-5.882c0.471-3.19-2.296-4.795-5.708-4.179c-4.016,0.726-8.059,1.328-12.032,2.238
		C250.46,278.726,242.221,280.788,233.967,282.781z"/>
	
		<rect x="59.392" y="341.943" display="inline" fill-rule="evenodd" clip-rule="evenodd" fill="none" width="372" height="139.742"/>
	<text transform="matrix(1 0 0 1 142.499 438.2222)" display="inline" font-family="'Muli'" font-size="50">lights on</text>
</g>
<g id="Layer_24" display="none">
	<g display="inline">
		<path fill-rule="evenodd" clip-rule="evenodd" d="M289.522,222.432c-9.739,0-18.541,0-27.875,0c0,5.54,0,10.539,0,15.538
			c-0.002,15.825,0.04,31.651-0.031,47.477c-0.028,6.244-3.292,10.156-8.479,10.572c-5.45,0.436-9.398-3.615-9.412-9.91
			c-0.043-19.651,0.002-39.303-0.023-58.954c-0.003-2.125,0.739-4.635-2.912-4.892c-3.607-0.252-4.872,0.932-4.84,4.661
			c0.158,18.258,0.071,36.52,0.07,54.78c0,1.391,0.036,2.784-0.005,4.172c-0.186,6.295-3.432,10.059-8.747,10.174
			c-5.301,0.113-9.177-4.057-9.206-10.369c-0.085-17.563-0.023-35.128-0.021-52.692c0.001-3.284,0-6.567,0-10.593
			c-9.357,0-18.288,0-28.117,0c3.535-10.059,6.731-19.169,9.942-28.275c6.567-18.629,13.144-37.255,19.711-55.885
			c0.23-0.653,0.671-1.388,0.543-1.983c-0.314-1.464-0.903-2.867-1.381-4.295c-1.273,0.868-3.215,1.463-3.703,2.655
			c-2.039,4.964-3.648,10.103-5.396,15.185c-3.551,10.321-7.064,20.655-10.639,30.969c-2.115,6.105-5.902,8.442-10.896,6.843
			c-5.223-1.672-6.976-6.053-4.809-12.218c6.668-18.957,13.312-37.922,20.064-56.848c4.423-12.397,9.271-15.709,22.418-15.709
			c9.913-0.001,19.828,0.108,29.738-0.027c9.524-0.13,16.312,4.524,19.515,12.918c7.718,20.235,14.747,40.734,21.888,61.185
			c1.695,4.854-0.769,9.055-5.597,10.674c-4.36,1.462-8.257-0.478-10.104-5.634c-5.255-14.672-10.184-29.46-15.537-44.094
			c-0.854-2.337-4.223-6.101-4.741-5.841c-3.932,1.974-1.134,5.04-0.264,7.536c8.843,25.359,17.811,50.673,26.725,76.008
			C288.081,217.493,288.615,219.479,289.522,222.432z"/>
		<path fill-rule="evenodd" clip-rule="evenodd" d="M318.958,76.136c-3.303,2.729-5.934,4.903-7.92,6.543
			c-8.135-6.636-15.803-13.682-24.257-19.605c-13.646-9.557-29.121-14.965-45.736-16.005c-12.157-0.76-23.733,2.814-34.877,7.535
			c-23.057,9.767-39.621,26.444-51.582,48.169c-32.279,58.632-23.636,124.784,15.626,171.798
			c17.238,20.643,40.423,31.867,67.29,33.363c9.055,0.504,18.678-2.15,27.46-5.096c29.863-10.021,49.424-31.384,62.396-59.351
			c17.202-37.088,20.347-75.111,7.115-114.123c-0.495-1.459-1.103-2.881-1.76-4.585c-1.414,0.339-2.643,0.633-4.13,0.988
			c0-1.343-0.09-2.378,0.015-3.394c0.612-6.034,1.27-12.062,2.021-19.101c5.51,4.191,10.398,7.909,13.893,10.565
			c0,3.85-0.572,6.362,0.084,8.495c16.727,54.355,11.624,105.759-22.499,152.245c-20.733,28.248-48.904,44.783-84.927,44.361
			c-31.556-0.369-56.926-14.623-76.961-38.206c-28.676-33.749-38.942-73.576-35.744-117.084
			c2.434-33.096,13.358-63.237,35.19-88.661c21.862-25.458,49.208-40.24,83.502-38.725C274.42,37.646,298.823,52.829,318.958,76.136
			z"/>
		<path fill-rule="evenodd" clip-rule="evenodd" d="M259.745,79.079c0.055,10.915-7.975,18.976-18.975,19.047
			c-10.979,0.071-19.083-7.908-19.16-18.864c-0.078-10.776,8.186-19.115,18.985-19.154C251.432,60.067,259.69,68.249,259.745,79.079
			z"/>
	</g>
	
		<rect x="47.438" y="341.943" display="inline" fill-rule="evenodd" clip-rule="evenodd" fill="none" width="381.953" height="139.742"/>
	<text transform="matrix(1 0 0 1 56.3721 438.2222)" display="inline" font-family="'Muli'" font-size="50">free movement</text>
</g>
<g id="Layer_25" display="none">
	<g display="inline">
		<path fill-rule="evenodd" clip-rule="evenodd" d="M231.927,272.406c0,6.59-0.264,12.519,0.062,18.415
			c0.499,9.048,10.322,14.172,18.188,14.229c8.58,0.062,13.759-6.087,13.771-15.151c0.013-8.985,0.557-18.012-0.121-26.947
			c-1.211-15.958,12.677-27.863,27.8-28.782c2.831-0.171,5.681-0.023,8.834-0.023c0,3.367,0,6.31,0,9.301
			c-4.728,0.567-9.375,0.765-13.854,1.74c-7.523,1.635-14.606,7.053-13.947,17.475c0.588,9.305-0.04,18.682,0.135,28.023
			c0.211,11.159-8.294,23.079-23.881,22.584c-13.942-0.444-24.825-9.963-24.884-22.744c-0.018-3.952,0.048-7.907-0.02-11.861
			c-0.051-2.971,1.041-6.228-3.329-7.77c-1.137-0.4-1.66-3.769-1.717-5.795c-0.2-7.184-0.101-14.374-0.062-21.562
			c0.022-4.44,0.136-8.334,4.051-12.109c2.161-2.086,0.99-7.626,1.367-12.177c-4.668,0-8.551,0-12.745,0
			c-0.91-4.59-2.446-8.745-2.421-12.892c0.071-11.892-7.209-19.408-14.886-26.808c-3.71-3.575-8.071-6.612-11.169-10.637
			c-1.996-2.592-3.205-6.567-3.102-9.872c0.744-24.017,1.888-48.024,2.963-72.031c0.288-6.448,0.924-12.88,1.137-19.329
			c0.381-11.586,5.873-17.364,17.482-17.965c2.646-0.136,5.305-0.02,7.873-0.02c1.345-10.042,2.189-10.771,11.925-10.776
			c4.493-0.002,8.985-0.004,13.478,0.002c9.392,0.012,10.354,0.864,11.357,10.214c4.884,0.492,9.89,0.604,14.722,1.577
			c7.144,1.44,11.292,6.165,11.762,13.337c1.911,29.158,3.712,58.323,5.406,87.494c0.572,9.877-2.491,18.158-10.895,24.311
			c-4.293,3.143-7.784,7.379-11.658,11.1c-6.414,6.159-7.625,14.273-8.574,22.518c-0.345,3.002-0.924,5.979-1.479,9.493
			c-4.388,0-8.621,0-13.234,0c0,4.437,0,8.315,0,12.648c5.998,0.893,7.306,5.153,7.093,10.803
			c-0.277,7.356-0.25,14.738-0.001,22.099C239.523,269.52,237.959,272.547,231.927,272.406z M214.986,55.356
			c-5.068,0.367-9.89,0.776-14.719,1.052c-5.754,0.329-9.007,3.118-9.463,8.833c-0.854,10.698-1.481,21.414-2.204,32.122
			c-0.999,14.815-1.932,29.637-3.021,44.446c-0.838,11.413-0.346,21.656,10.463,29.592c8.43,6.189,14.938,14.838,17.729,25.57
			c0.286,1.101,2.128,2.517,3.288,2.555c7.18,0.235,14.376,0.269,21.551-0.023c1.277-0.052,2.883-1.703,3.647-3.016
			c2.922-5.017,5.18-10.457,8.418-15.241c2.902-4.286,6.77-7.918,11.089-12.84c-4.895,0-8.526,0-13.745,0
			c1.771-2.553,2.699-5.117,3.729-5.16c4.2-0.175,9.491-2.529,11.947,4.679c2.467-3.205,5.312-6.283,5.474-9.496
			c0.543-10.869,0.577-21.809-0.006-32.677c-1.062-19.826-2.786-39.616-4.062-59.433c-0.41-6.386-3.572-9.869-10.017-9.979
			c-4.811-0.083-9.622-0.017-14.312-0.017c-2.137-11.841-2.137-11.856-13.442-11.79C213.892,44.61,216.398,44.762,214.986,55.356z"
			/>
		<path fill-rule="evenodd" clip-rule="evenodd" d="M247.916,71.317c4.937,0,8.463-0.145,11.964,0.095
			c0.947,0.065,2.431,1.193,2.571,2.019c0.21,1.23-0.415,3.708-0.93,3.775c-3.33,0.435-6.818,0.835-10.056,0.209
			C250.228,77.176,249.516,74.21,247.916,71.317z"/>
		<path fill-rule="evenodd" clip-rule="evenodd" d="M262.015,123.102c-3.573,0.158-7.442,0.329-11.303,0.5
			c-2.214-4.989-1.711-6.2,3.484-5.778c3.174,0.257,9.267-3.303,8.469,4.648C262.651,122.604,262.423,122.715,262.015,123.102z"/>
		<path fill-rule="evenodd" clip-rule="evenodd" d="M258.562,105.844c-1.828-1.907-2.999-3.126-4.169-4.346
			c1.609-0.676,3.215-1.836,4.83-1.851c1.003-0.01,2.023,1.716,3.036,2.663C261.211,103.312,260.163,104.314,258.562,105.844z"/>
		<path fill-rule="evenodd" clip-rule="evenodd" d="M257.797,153.019c1.827,1.711,2.96,2.772,4.093,3.833
			c-1.225,0.853-2.453,2.379-3.674,2.373c-1.292-0.006-2.578-1.47-3.865-2.298C255.323,155.823,256.297,154.719,257.797,153.019z"/>
		<path fill-rule="evenodd" clip-rule="evenodd" d="M258.61,126.232c1.639,1.407,2.768,2.376,3.897,3.345
			c-1.365,0.74-2.742,2.077-4.092,2.05c-1.352-0.028-2.675-1.42-4.011-2.214C255.62,128.494,256.834,127.575,258.61,126.232z"/>
		<path fill-rule="evenodd" clip-rule="evenodd" d="M254.813,141.283c-1.01-5.892,2.273-5.349,4.689-5.087
			c1.109,0.121,2.062,1.677,3.087,2.582C260.167,139.558,257.744,140.339,254.813,141.283z"/>
		<path fill-rule="evenodd" clip-rule="evenodd" d="M261.738,150.229c-3.035-0.86-7.112,2.048-7.46-3.541
			C260.123,144.224,261.481,144.744,261.738,150.229z"/>
		<path fill-rule="evenodd" clip-rule="evenodd" d="M260.45,113.336c-1.878,0-3.755,0-5.633,0c-0.357-0.412-0.716-0.824-1.072-1.236
			c1.223-1.292,2.483-3.642,3.656-3.599c1.379,0.05,2.682,2.179,4.017,3.407C261.095,112.384,260.772,112.86,260.45,113.336z"/>
		<path fill-rule="evenodd" clip-rule="evenodd" d="M262.63,93.54c-2.54,0.678-5.08,1.357-7.62,2.035
			c-0.262-0.774-0.522-1.547-0.785-2.322c1.734-2.8,4.552-2.738,7.592-2.089C262.088,91.956,262.358,92.748,262.63,93.54z"/>
		<path fill-rule="evenodd" clip-rule="evenodd" d="M261.751,80.298c0.093,5.55-2.812,5.419-5.423,5.174
			c-0.718-0.067-1.306-1.531-1.955-2.354C256.653,82.247,258.933,81.375,261.751,80.298z"/>
	</g>
	
		<rect x="51.392" y="341.943" display="inline" fill-rule="evenodd" clip-rule="evenodd" fill="none" width="364" height="139.742"/>
	<text transform="matrix(1 0 0 1 108.123 378.2222)" display="inline"><tspan x="0" y="0" font-family="'Muli'" font-size="50">saline lock  </tspan><tspan x="13.44" y="60" font-family="'Muli'" font-size="50">preferred</tspan></text>
</g>
<g id="Layer_19" display="none">
</g>
<g id="Layer_20" display="none">
</g>
<g id="Layer_18" display="none">
	<g display="inline">
		<path fill-rule="evenodd" clip-rule="evenodd" d="M254.409,95.169c8.849-8.944,16.958-17.143,25.991-26.275
			c-3.835-3.469-8.062-7.021-11.974-10.892c-4.527-4.485-4.734-9.378-0.938-13.146c3.478-3.448,9.088-3.111,13.278,1.066
			c24.27,24.196,48.509,48.418,72.703,72.69c4.54,4.555,4.89,10.15,1.193,13.648c-4.02,3.799-8.668,3.372-13.619-1.48
			c-3.684-3.609-7.182-7.409-10.538-10.889c-8.424,8.635-16.455,16.868-25.285,25.918c5.408,5.244,11.887,11.506,18.344,17.791
			c2.045,1.991,4.099,3.981,6.029,6.085c3.854,4.208,3.836,9.246,0.057,12.764c-3.303,3.074-8.772,2.868-12.483-0.796
			c-6.215-6.135-12.258-12.443-20.054-20.391c-1.343,2.298-2.098,4.499-3.573,5.984c-23.032,23.161-46.232,46.155-69.188,69.391
			c-4.029,4.08-8.033,5.62-13.296,3.319c-7.278-3.182-14.53-6.421-23.224-10.27c-0.91,1.206-2.23,3.388-3.963,5.167
			c-6.168,6.324-6.236,6.274-13.824,0.601c-11.576,11.774-23.249,23.649-35.723,36.338c-0.662-7.775-1.108-13.591,5.028-18.754
			c8.679-7.304,16.403-15.745,24.7-23.861c-10.534-10.648,2.95-13.166,5.103-18.908c-3.264-7.375-6.441-14.472-9.543-21.602
			c-2.242-5.147-1.226-9.265,2.958-13.393c23.502-23.195,46.769-46.629,70.11-69.986c1.233-1.233,2.408-2.523,4.461-4.681
			c-6.733-6.386-13.217-12.473-19.626-18.644c-3.189-3.07-3.891-6.698-1.718-10.654c2.124-3.867,5.762-4.839,9.621-3.895
			c2.072,0.507,4.066,2.151,5.641,3.735C238.949,79.1,246.688,87.199,254.409,95.169z M209.898,201.285
			c4.833-5.184,8.697-9.327,13.251-14.21c-3.768-3.52-7.861-7.343-11.835-11.055c4.345-4.117,8.322-7.885,13.22-12.523
			c3.385,3.789,7.113,7.965,10.16,11.375c4.647-4.161,8.856-7.929,13.933-12.474c-4.428-3.939-8.514-7.577-11.731-10.44
			c4.123-4.748,7.793-8.97,12.82-14.758c3.757,4.913,7.075,9.25,9.871,12.903c4.976-4.77,9.033-8.661,12.534-12.02
			c-7.945-8.147-15.882-16.283-23.417-24.01c-24.921,24.831-49.881,49.703-74.913,74.646c3.841,3.778,7.85,7.724,12.846,12.639
			c3.598-4.337,7.202-8.684,11.222-13.531C202.3,192.789,205.838,196.747,209.898,201.285z M279.103,118.553
			c8.491-8.406,16.758-16.592,24.443-24.203c-3.556-3.703-7.566-7.875-11.117-11.573c-8.219,8.104-16.506,16.278-24.856,24.511
			C271.585,111.208,275.751,115.28,279.103,118.553z"/>
		<path fill-rule="evenodd" clip-rule="evenodd" d="M133.487,281.054c3.467,3.61,6.682,6.667,9.555,10.02
			c4.542,5.302,3.912,13.316-1.164,17.792c-4.754,4.189-12.445,4.047-17.036-0.316c-5.015-4.765-5.312-12.42-0.572-17.728
			C127.114,287.636,130.127,284.603,133.487,281.054z"/>
	</g>
	
		<rect x="42.164" y="400.685" display="inline" fill-rule="evenodd" clip-rule="evenodd" fill="none" width="395.228" height="121"/>
	<text transform="matrix(1 0 0 1 44.0869 436.9644)" display="inline" font-family="'Muli'" font-size="50">epidural wanted</text>
</g>
<g id="Layer_21" display="none">
</g>
<g id="Layer_22" display="none">
</g>
<g id="Layer_15" display="none">
	<g display="inline">
		<g>
			<path fill-rule="evenodd" clip-rule="evenodd" d="M267.314,41.48c-1.478,5.891-2.945,11.769-4.427,17.642
				c-6.538,25.914-12.937,51.864-19.681,77.725c-3.34,12.805-9.603,24.203-17.408,34.953c-5.018,6.913-9.069,14.621-12.813,22.332
				c-2.453,5.048-0.352,7.887,5.137,8.847c15.184,2.652,24.294,12.833,25.319,28.23c0.715,10.728-0.294,21.186-5.034,30.995
				c-6.158,12.742-18.611,19.472-31.328,17.095c-14.631-2.732-23.367-12.519-25.08-27.362c-1.877-16.272,1.472-31.92,5.189-47.507
				c8.817-36.964,17.764-73.898,26.842-110.799c6.819-27.728,25.775-43.665,51.857-52.445
				C266.104,41.113,266.399,41.282,267.314,41.48z M229.136,237.152c-0.358-0.111-0.717-0.222-1.075-0.332
				c-0.116-1.943-0.061-3.913-0.379-5.822c-1.242-7.428-5.62-11.94-11.96-12.511c-7.825-0.703-12.59,2.26-15.3,9.958
				c-2.812,7.994-4.042,16.206-2.058,24.622c1.387,5.878,5.408,9.491,11.218,10.278c6.353,0.863,11.515-1.098,13.868-6.825
				C225.997,250.333,227.294,243.63,229.136,237.152z M205.151,171.333c-3.968,0.088-7.118,3.309-7.072,7.226
				c0.05,4.187,3.319,7.229,7.59,7.063c4.066-0.157,6.822-3.169,6.758-7.387C212.366,174.256,209.19,171.243,205.151,171.333z"/>
			<path fill-rule="evenodd" clip-rule="evenodd" d="M232.723,185.871c1.59-2.667,2.925-4.733,4.089-6.889
				c5.414-10.028,10.879-20.03,16.083-30.167c1.065-2.073,1.971-3.167,4.445-3.52c25.782-3.669,51.538-7.52,77.306-11.29
				c3.829-0.561,7.681-0.968,12.208-1.531c-5.021,11.197-11.266,20.681-19.752,28.634c-11.713,10.978-25.589,16.882-41.572,18.525
				c-16.484,1.693-32.901,4.022-49.349,6.061C235.283,185.806,234.371,185.791,232.723,185.871z"/>
			<path fill-rule="evenodd" clip-rule="evenodd" d="M185.069,169.07c-1.743,7.238-3.302,13.991-5.06,20.694
				c-0.25,0.955-1.373,2.255-2.246,2.386c-16.144,2.432-32.354,4.096-48.554,0.747c-8.163-1.687-15.832-4.764-20.8-12.037
				c-10.546-15.438-5.7-38.6,14.204-45.341c13.622-4.614,27.438-4.614,40.744,1.157c10.871,4.714,16.228,13.601,16.486,25.389
				C179.925,165.751,180.181,168.884,185.069,169.07z M141.668,147.646c-4.302,0.77-8.62,1.174-12.712,2.358
				c-6.891,1.993-9.893,6.256-10.013,13.151c-0.107,6.218,3.181,11.14,9.656,13.094c8.709,2.629,17.617,2.685,26.323-0.115
				c6.365-2.047,9.384-6.657,9.383-13.265c-0.001-6.107-3.249-10.873-9.487-12.738C150.605,148.871,146.139,148.459,141.668,147.646
				z"/>
		</g>
		<g>
			<path fill-rule="evenodd" clip-rule="evenodd" d="M316.339,318.863c-36.26,0.024-65.638-29.166-65.728-65.224
				c-0.097-39.093,32.927-65.785,65.592-65.727c31.123,0.056,65.474,24.448,65.547,65.4
				C381.819,291.491,351.351,318.661,316.339,318.863z M316.399,199.929c-28.789-0.263-53.583,23.642-53.84,51.911
				c-0.276,30.381,23.405,54.872,53.288,55.107c28.544,0.224,53.029-23.719,53.803-51.623
				C370.492,224.969,345.913,199.826,316.399,199.929z"/>
			<g>
				<path fill-rule="evenodd" clip-rule="evenodd" fill="none" stroke="#000000" stroke-width="9" stroke-miterlimit="10" d="
					M269.901,253.585c3.021,0,13.538,0,13.538,0"/>
				<path fill-rule="evenodd" clip-rule="evenodd" fill="none" stroke="#000000" stroke-width="9" stroke-miterlimit="10" d="
					M349.943,253.585c3.02,0,13.538,0,13.538,0"/>
			</g>
			<g>
				<path fill-rule="evenodd" clip-rule="evenodd" fill="none" stroke="#000000" stroke-width="9" stroke-miterlimit="10" d="
					M316.691,206.796c0,3.021,0,13.538,0,13.538"/>
				<path fill-rule="evenodd" clip-rule="evenodd" fill="none" stroke="#000000" stroke-width="9" stroke-miterlimit="10" d="
					M316.691,286.837c0,3.021,0,13.538,0,13.538"/>
			</g>
			
				<polyline fill-rule="evenodd" clip-rule="evenodd" fill="none" stroke="#000000" stroke-width="9" stroke-miterlimit="10" points="
				298.623,276.71 316.691,253.388 346.637,235.428 			"/>
		</g>
	</g>
	
		<rect x="41.392" y="341.943" display="inline" fill-rule="evenodd" clip-rule="evenodd" fill="none" width="392" height="131.775"/>
	<text transform="matrix(1 0 0 1 82.2529 378.2222)" display="inline"><tspan x="0" y="0" font-family="'Muli'" font-size="50">delayed cord </tspan><tspan x="44.812" y="60" font-family="'Muli'" font-size="50">clamping</tspan></text>
</g>
<g id="Layer_16" display="none">
	<path display="inline" fill-rule="evenodd" clip-rule="evenodd" d="M274.58,270.737c-1.233,17.944-9.931,30.853-24.267,39.985
		c-32.269,20.558-74.346-2.134-77.252-38.77c-0.241-3.044-0.235-6.113-0.235-9.17c-0.016-57.747-0.139-115.493,0.069-173.239
		c0.05-14.211-1.881-27.241-12.532-37.94c-4.575-4.594-1.721-10.589,4.808-11.5c1.128-0.158,2.291-0.086,3.438-0.086
		c36.904-0.003,73.808-0.019,110.712,0.037c2.05,0.003,4.276,0.189,6.11,0.995c4.047,1.777,5.03,5.664,2.726,9.444
		c-0.493,0.809-1.104,1.561-1.748,2.262c-10.637,11.605-13.181,24.388-9.278,40.032c5.979,23.975,14.64,46.538,27.251,67.742
		c5.259,8.844,9.836,18.123,14.265,27.422c5.097,10.7,6.74,22.269,6.934,34.005c0.401,24.121-16.975,44.262-40.953,47.668
		C281.437,270.076,278.22,270.338,274.58,270.737z M179.177,53.994c9.39,17.592,7.135,36.157,7.188,54.366
		c0.154,52.976,0.062,105.951-0.028,158.928c-0.028,17.018,9.139,27.708,23.423,35.066c13.834,7.129,26.028,2.888,37.257-5.834
		c8.826-6.853,14.067-15.803,14.03-27.435c-11.045-3.398-20.512-8.637-27.041-17.913c-2.616-3.712-5.191-5.79-10.076-5.828
		c-2.191-0.018-5.712-3.042-6.148-5.203c-0.424-2.091,2.201-4.92,3.772-7.231c0.536-0.787,1.939-0.986,3.441-1.681
		c0-9.688,0-19.387,0-29.491c-0.569-0.159-2.011-0.125-2.632-0.821c-1.854-2.079-4.996-4.751-4.643-6.623
		c0.453-2.379,3.958-6.048,5.941-5.922c6.282,0.398,8.544-3.031,10.959-7.733c3.971-7.733,8.532-15.162,13.317-23.545
		c-8.132,0-15.332,0.116-22.526-0.036c-5.885-0.124-9.875-4.243-7.641-8.433c1.297-2.429,5.084-4.702,7.914-4.92
		c8.365-0.644,16.82-0.439,25.224-0.136c3.927,0.142,5.554-1.577,7.337-4.793c4.609-8.315,2.549-16.983,2.863-26.16
		c-2.471,0-4.338,0-6.205,0c-9.756-0.001-19.509-0.035-29.263,0.011c-4.583,0.022-8.272-1.462-8.294-6.557
		c-0.021-5.029,3.439-6.759,8.16-6.588c3.629,0.131,7.268,0.017,10.901,0.016c8.148-0.001,16.298,0,24.755,0
		c0.128-16.004-0.788-31.348,7.299-45.504C238.329,53.994,209.166,53.994,179.177,53.994z M276.004,101.726
		c-0.511,0.073-1.022,0.145-1.533,0.218c-1.463,5.475-2.825,10.98-4.406,16.42c-6.15,21.166-17.892,39.556-28.999,58.266
		c-8.194,13.804-13.989,28.273-13.627,44.818c0.505,23.034,16.244,40.998,40.183,45.082c21.938,3.741,44.626-9.195,52.076-29.485
		c4.378-11.92,2.771-23.823-0.306-35.494c-1.929-7.317-4.771-14.588-8.402-21.225C297.174,155.086,281.656,130.668,276.004,101.726z
		"/>
	<rect x="47.392" y="341.943" display="inline" fill-rule="evenodd" clip-rule="evenodd" fill="none" width="384" height="121"/>
	<text transform="matrix(1 0 0 1 131.0791 378.2222)" display="inline"><tspan x="0" y="0" font-family="'Muli'" font-size="50">donating </tspan><tspan x="-20.654" y="60" font-family="'Muli'" font-size="50">cord blood</tspan></text>
</g>
<g id="Layer_17" display="none">
	<path display="inline" fill-rule="evenodd" clip-rule="evenodd" d="M274.58,270.737c-1.233,17.944-9.931,30.853-24.267,39.985
		c-32.269,20.558-74.346-2.134-77.252-38.77c-0.241-3.044-0.235-6.113-0.235-9.17c-0.016-57.747-0.139-115.493,0.069-173.239
		c0.05-14.211-1.881-27.241-12.532-37.94c-4.575-4.594-1.721-10.589,4.808-11.5c1.128-0.158,2.291-0.086,3.438-0.086
		c36.904-0.003,73.808-0.019,110.712,0.037c2.05,0.003,4.276,0.189,6.11,0.995c4.047,1.777,5.03,5.664,2.726,9.444
		c-0.493,0.809-1.104,1.561-1.748,2.262c-10.637,11.605-13.181,24.388-9.278,40.032c5.979,23.975,14.64,46.538,27.251,67.742
		c5.259,8.844,9.836,18.123,14.265,27.422c5.097,10.7,6.74,22.269,6.934,34.005c0.401,24.121-16.975,44.262-40.953,47.668
		C281.437,270.076,278.22,270.338,274.58,270.737z M179.177,53.994c9.39,17.592,7.135,36.157,7.188,54.366
		c0.154,52.976,0.062,105.951-0.028,158.928c-0.028,17.018,9.139,27.708,23.423,35.066c13.834,7.129,26.028,2.888,37.257-5.834
		c8.826-6.853,14.067-15.803,14.03-27.435c-11.045-3.398-20.512-8.637-27.041-17.913c-2.616-3.712-5.191-5.79-10.076-5.828
		c-2.191-0.018-5.712-3.042-6.148-5.203c-0.424-2.091,2.201-4.92,3.772-7.231c0.536-0.787,1.939-0.986,3.441-1.681
		c0-9.688,0-19.387,0-29.491c-0.569-0.159-2.011-0.125-2.632-0.821c-1.854-2.079-4.996-4.751-4.643-6.623
		c0.453-2.379,3.958-6.048,5.941-5.922c6.282,0.398,8.544-3.031,10.959-7.733c3.971-7.733,8.532-15.162,13.317-23.545
		c-8.132,0-15.332,0.116-22.526-0.036c-5.885-0.124-9.875-4.243-7.641-8.433c1.297-2.429,5.084-4.702,7.914-4.92
		c8.365-0.644,16.82-0.439,25.224-0.136c3.927,0.142,5.554-1.577,7.337-4.793c4.609-8.315,2.549-16.983,2.863-26.16
		c-2.471,0-4.338,0-6.205,0c-9.756-0.001-19.509-0.035-29.263,0.011c-4.583,0.022-8.272-1.462-8.294-6.557
		c-0.021-5.029,3.439-6.759,8.16-6.588c3.629,0.131,7.268,0.017,10.901,0.016c8.148-0.001,16.298,0,24.755,0
		c0.128-16.004-0.788-31.348,7.299-45.504C238.329,53.994,209.166,53.994,179.177,53.994z M276.004,101.726
		c-0.511,0.073-1.022,0.145-1.533,0.218c-1.463,5.475-2.825,10.98-4.406,16.42c-6.15,21.166-17.892,39.556-28.999,58.266
		c-8.194,13.804-13.989,28.273-13.627,44.818c0.505,23.034,16.244,40.998,40.183,45.082c21.938,3.741,44.626-9.195,52.076-29.485
		c4.378-11.92,2.771-23.823-0.306-35.494c-1.929-7.317-4.771-14.588-8.402-21.225C297.174,155.086,281.656,130.668,276.004,101.726z
		"/>
	<rect x="47.392" y="341.943" display="inline" fill-rule="evenodd" clip-rule="evenodd" fill="none" width="384" height="121"/>
	<text transform="matrix(1 0 0 1 94.5068 378.2222)" display="inline"><tspan x="0" y="0" font-family="'Muli'" font-size="50">private cord </tspan><tspan x="9.655" y="60" font-family="'Muli'" font-size="50">blood bank</tspan></text>
</g>
<g id="Layer_8" display="none">
</g>
<g id="Layer_9" display="none">
</g>
<g id="Layer_10" display="none">
</g>
<g id="Layer_11" display="none">
	<g display="inline">
		<path fill-rule="evenodd" clip-rule="evenodd" d="M194.741,116.153c-10.655,2.18-20.858,3.825-30.819,6.429
			c-9.668,2.528-19.086,6.038-28.704,9.147c0.137-6.834,2.125-9.673,7.941-10.962c17.105-3.787,34.256-7.381,51.331-11.305
			c1.828-0.42,3.953-2.169,4.801-3.884c4.346-8.797,10.688-13.446,20.801-13.083c12.615,0.452,25.26,0.223,37.889,0.075
			c9.009-0.106,15.647,4.263,19.649,11.827c2.162,4.09,4.944,4.665,8.57,5.373c14.106,2.753,28.177,5.687,42.254,8.591
			c0.974,0.202,1.887,0.714,2.911,1.115c-1.431,5.114-3.961,6.09-8.959,4.819c-11.718-2.978-23.65-5.085-35.509-7.484
			c-1.132-0.229-2.349-0.03-4.062-0.03c4.715,13.716,9.29,27.071,13.899,40.414c2.366,6.853,4.877,13.654,7.164,20.533
			c2.123,6.387,0.187,10.647-5.578,12.832c-4.97,1.884-9.616-0.438-11.751-6.529c-6.08-17.337-11.871-34.776-17.911-52.128
			c-0.875-2.512-2.483-4.76-3.686-7.003c-5.312,1.773-4.312,4.937-3.232,8.033c10.54,30.243,21.107,60.474,31.649,90.714
			c0.744,2.133,1.363,4.307,2.262,7.171c-10.674,0-20.742,0-31.263,0c0,12.243,0,23.899,0,36.353
			c7.176-0.794,14.314-1.153,21.282-2.451c13.266-2.469,26.59-4.909,39.56-8.566c4.465-1.26,8.418-4.516,13.514-3.746
			c0.462,0.069,0.913,0.194,1.877,0.405c-2.669,4.47-4.242,8.493-10.266,10.027c-20.645,5.259-41.434,9.27-62.663,10.766
			c-3.06,0.215-3.801,1.498-3.768,4.324c0.104,8.731,0.263,17.477-0.135,26.195c-0.145,3.173-1.215,6.657-2.91,9.311
			c-2.052,3.21-5.562,5.086-9.57,3.507c-4.264-1.682-7.675-4.295-7.653-9.665c0.042-10.654,0.011-21.306,0.011-32.247
			c-3.238,0-5.955,0-9.353,0c0,10.385-0.061,20.666,0.031,30.943c0.035,4.009-0.854,7.288-4.541,9.478
			c-6.852,4.068-14.68,0.277-15.118-7.936c-0.502-9.421-0.391-18.891-0.199-28.33c0.081-4.019-1.03-5.302-5.186-5.824
			c-14.602-1.834-29.111-4.416-43.683-6.53c-5.05-0.733-6.238-3.042-3.811-7.572c17.142,2.759,34.341,5.531,52.61,8.475
			c0-8.694-0.002-16.276,0.001-23.861c0.005-12.845,0.006-12.845-12.775-12.845c-6.117,0-12.236,0-19.305,0
			c2.574-7.563,4.907-14.484,7.285-21.388c8.87-25.754,17.697-51.525,26.712-77.227c1.042-2.971,1.383-5.627-1.754-6.434
			c-1.113-0.285-3.844,2.494-4.504,4.36c-6.194,17.506-12.105,35.115-18.083,52.7c-2.3,6.767-7.233,9.749-12.782,7.678
			c-5.416-2.021-7.103-7.42-4.69-14.237c6.785-19.174,13.488-38.379,20.197-57.583C194.884,118.431,194.741,117.852,194.741,116.153
			z M243.6,267.861c0-11.501,0.113-22.835-0.206-34.16c-0.025-0.938-3-2.536-4.551-2.473c-1.546,0.06-4.306,1.792-4.336,2.857
			c-0.318,11.152-0.197,22.319-0.197,33.775C237.6,267.861,240.3,267.861,243.6,267.861z"/>
		<path fill-rule="evenodd" clip-rule="evenodd" d="M239.918,86.522c-12.492,0.008-21.519-9.168-21.463-21.818
			c0.055-12.355,9.522-22.138,21.472-22.186c12.162-0.049,21.679,9.796,21.665,22.413C261.577,77.474,252.502,86.514,239.918,86.522
			z"/>
		<path fill-rule="evenodd" clip-rule="evenodd" d="M156.053,261.572c-5.688,1.784-10.423,1-15.581-1.615
			c-12.971-6.574-26.656-11.733-39.432-18.649c-11.518-6.235-21.461-15.027-28.071-26.714c-3.168-5.6-5.225-11.993-6.922-18.268
			c-1.508-5.576-0.434-6.29,5.89-5.749c3.243,23.998,19.473,37.678,38.961,48.093c10.646,5.688,21.984,10.137,33.254,14.493
			C151.938,256.172,152.125,255.672,156.053,261.572z"/>
		<path fill-rule="evenodd" clip-rule="evenodd" d="M344.686,251.048c10.546-5.536,20.992-10.544,30.969-16.385
			c10.566-6.185,20.122-13.914,25.737-25.263c2.329-4.706,2.696-10.382,4.752-15.272c1.303-3.099,4.075-5.56,6.859-8.182
			c0.599,4.233,5.384,7.799,0.666,12.6c-1.412,1.436-1.265,4.364-2.07,6.518c-5.191,13.875-14.772,24.288-26.73,32.077
			c-10.121,6.59-21.221,11.616-31.78,17.532C348.428,257.281,345.992,255.708,344.686,251.048z"/>
		<path fill-rule="evenodd" clip-rule="evenodd" d="M412.411,179.371c-4.854,1.078-7.472-0.05-9.495-4.544
			c-6.422-14.255-18.209-23.367-31.301-30.505c-9.322-5.083-19.603-8.34-29.002-13.298c-2.833-1.495-4.146-5.961-6.156-9.068
			c0.423-0.62,0.845-1.239,1.266-1.859c3.709,1.574,7.427,3.133,11.127,4.729c1.604,0.691,3.16,1.503,4.769,2.184
			c17.276,7.31,33.688,16.108,46.251,30.599c4.33,4.997,7.433,11.112,10.932,16.82C411.659,175.828,411.868,177.638,412.411,179.371
			z"/>
		<path fill-rule="evenodd" clip-rule="evenodd" d="M130.083,132.992c-24.125,11.878-49.477,22.37-56.699,53.124
			c-5.51-4.577-6.295-8.6-3.702-13.652c11.686-22.784,32.076-34.63,54.145-44.178c1.626-0.703,4.621,1.867,6.98,2.916
			C130.565,131.797,130.324,132.395,130.083,132.992z"/>
	</g>
	<rect x="15" y="340.943" display="inline" fill-rule="evenodd" clip-rule="evenodd" fill="none" width="447.739" height="121"/>
	<text transform="matrix(1 0 0 1 109.0723 377.2222)" display="inline"><tspan x="0" y="0" font-family="'Muli'" font-size="50">alternative </tspan><tspan x="-67.749" y="60" font-family="'Muli'" font-size="50">pushing position</tspan></text>
</g>
<g id="Layer_12" display="none">
</g>
<g id="Layer_13" display="none">
</g>
<g id="Layer_14" display="none">
</g>
<g id="Layer_2" display="none">
	
		<rect x="33.987" y="340.226" display="inline" fill-rule="evenodd" clip-rule="evenodd" fill="none" width="411.041" height="140"/>
	<text transform="matrix(1 0 0 1 60.2354 376.5054)" display="inline"><tspan x="0" y="0" font-family="'Muli'" font-size="50">one hour delay </tspan><tspan x="21.655" y="60" font-family="'Muli'" font-size="50">eye ointment</tspan></text>
	<path display="inline" fill-rule="evenodd" clip-rule="evenodd" d="M193.827,70.211c2.945,0.645,5.655,1.238,8.917,1.952
		c1.979-6.101,3.896-12.053,5.841-17.996c1.956-5.976,5.784-8.477,10.673-7.01c4.747,1.423,6.531,5.744,4.722,11.815
		c-1.843,6.183-3.82,12.325-5.819,18.743c3.029,1.65,5.756,3.135,8.87,4.83c3.387-5.424,6.64-10.612,9.872-15.814
		c3.258-5.241,7.774-6.899,12.063-4.402c4.48,2.609,5.179,7.466,1.765,13.043c-3.297,5.387-6.688,10.715-10.265,16.433
		c2.46,2.112,4.815,4.135,7.616,6.54c4.489-5.089,8.735-10.145,13.247-14.953c4.752-5.062,11.994-3.96,13.895,2.52
		c0.74,2.522-0.724,6.445-2.457,8.789c-3.938,5.327-8.666,10.071-12.892,14.847c4.267,6.305,8.444,12.289,12.415,18.407
		c3.195,4.922,3.273,10.097,0.112,15.067c-19.044,29.946-44.293,51.407-80.451,56.914c-14.736,2.244-28.793-1.677-41.991-8.365
		c-20.509-10.393-36.675-25.611-49.935-44.309c-5.854-8.254-6.23-15.6,0.061-23.505c3.719-4.674,7.091-9.624,11.008-14.981
		c-4.15-4.682-8.48-9.446-12.672-14.33c-3.336-3.888-3.485-8.012-0.644-11.312c3.445-4.003,8.583-3.945,12.631,0.391
		c4.184,4.479,8.157,9.155,12.386,13.928c2.732-2.259,5.139-4.248,7.814-6.46c-3.438-5.55-6.787-10.865-10.042-16.236
		c-3.068-5.063-2.349-9.543,1.847-12.21c4.182-2.659,8.691-1.378,11.865,3.534c3.246,5.023,6.359,10.132,9.817,15.662
		c3.075-1.599,5.937-3.087,9.161-4.763c-1.992-6.355-3.955-12.493-5.836-18.656c-1.593-5.22,0.226-9.515,4.578-11.06
		c4.701-1.669,8.803,0.612,10.732,6.095c1.271,3.606,2.383,7.269,3.575,10.902c2.562,7.812,2.563,7.812,11.213,5.588
		c0-6.391-0.179-12.995,0.095-19.58c0.098-2.355,0.6-5.487,2.153-6.79c1.996-1.673,5.354-2.79,7.917-2.473
		c4.049,0.502,6.065,3.864,6.117,7.98C193.891,55.972,193.827,62.959,193.827,70.211z M185.092,182.371
		c26.201-0.101,47.342-21.251,47.312-47.335c-0.03-25.528-21.539-47.366-46.495-47.208c-27.704,0.177-48.454,20.633-48.323,47.638
		C137.713,161.76,158.691,182.473,185.092,182.371z"/>
	<path display="inline" fill-rule="evenodd" clip-rule="evenodd" d="M304.132,312.32c-43.332,0.029-78.44-34.855-78.548-77.945
		c-0.115-46.719,39.349-78.617,78.386-78.547c37.193,0.066,78.243,29.217,78.331,78.155
		C382.384,279.608,345.973,312.078,304.132,312.32z M304.204,170.188c-34.404-0.314-64.034,28.253-64.342,62.035
		c-0.33,36.308,27.971,65.575,63.682,65.856c34.111,0.268,63.373-28.347,64.298-61.691
		C368.848,200.112,339.474,170.065,304.204,170.188z"/>
	<path display="inline" fill-rule="evenodd" clip-rule="evenodd" fill="#FFFFFF" d="M185.092,182.371
		c-26.4,0.103-47.379-20.61-47.506-46.905c-0.131-27.005,20.619-47.461,48.323-47.638c24.956-0.158,46.465,21.68,46.495,47.208
		C232.434,161.12,211.293,182.27,185.092,182.371z M184.655,161.447c14.523,0.061,26.396-11.56,26.632-26.067
		c0.232-14.262-11.746-26.486-26.12-26.655c-14.787-0.175-26.731,11.632-26.712,26.402
		C158.476,149.81,169.998,161.386,184.655,161.447z"/>
	<path display="inline" fill-rule="evenodd" clip-rule="evenodd" fill="#FFFFFF" d="M304.204,170.188
		c35.27-0.123,64.644,29.924,63.638,66.2c-0.925,33.345-30.187,61.959-64.298,61.691c-35.711-0.281-64.012-29.549-63.682-65.856
		C240.17,198.441,269.8,169.874,304.204,170.188z"/>
	<path display="inline" fill-rule="evenodd" clip-rule="evenodd" d="M184.655,161.447c-14.657-0.061-26.18-11.637-26.2-26.32
		c-0.02-14.771,11.925-26.577,26.712-26.402c14.374,0.169,26.353,12.394,26.12,26.655
		C211.051,149.887,199.179,161.507,184.655,161.447z"/>
	<g display="inline">
		<path fill-rule="evenodd" clip-rule="evenodd" fill="none" stroke="#000000" stroke-width="9" stroke-miterlimit="10" d="
			M248.637,234.31c3.609,0,16.179,0,16.179,0"/>
		<path fill-rule="evenodd" clip-rule="evenodd" fill="none" stroke="#000000" stroke-width="9" stroke-miterlimit="10" d="
			M344.29,234.31c3.609,0,16.179,0,16.179,0"/>
	</g>
	<g display="inline">
		<path fill-rule="evenodd" clip-rule="evenodd" fill="none" stroke="#000000" stroke-width="9" stroke-miterlimit="10" d="
			M304.553,178.394c0,3.609,0,16.179,0,16.179"/>
		<path fill-rule="evenodd" clip-rule="evenodd" fill="none" stroke="#000000" stroke-width="9" stroke-miterlimit="10" d="
			M304.553,274.047c0,3.609,0,16.179,0,16.179"/>
	</g>
	
		<polyline display="inline" fill-rule="evenodd" clip-rule="evenodd" fill="none" stroke="#000000" stroke-width="9" stroke-miterlimit="10" points="
		282.96,261.944 304.553,234.073 340.339,212.611 	"/>
</g>
</svg>
